<svg xmlns="http://www.w3.org/2000/svg" viewBox="194.75 194.46 590.5 590.73">  <path fill="#7b519d" d="m587 211 2.702.961C620.89 223.181 649.179 239.222 675 260l3.11 2.484c8.008 6.56 15.368 13.785 22.702 21.079l1.48 1.462A226 226 0 0 1 721 306l1.63 2.057c8.234 10.49 15.515 21.51 22.37 32.943l1.336 2.226C767.252 378.482 779.784 419.32 784 460l.286 2.7c.833 8.76.957 17.509.964 26.3l.002 2.38c-.06 45.07-10.019 90.694-31.231 130.675a304 304 0 0 0-3.033 5.972C742.54 644.8 731.855 660.452 720 675l-2.473 3.09c-6.56 8.02-13.79 15.383-21.09 22.722l-1.462 1.48A226 226 0 0 1 674 721l-2.057 1.63A293.24 293.24 0 0 1 490.5 785.189l-2.41-.003c-12.464-.032-24.741-.354-37.09-2.185l-3.133-.457C420.735 778.452 395.158 770.898 370 760l-2.375-1.014C348.466 750.728 330.672 739.475 314 727l-1.873-1.397C292.662 710.967 273.654 693.456 259 674q-1.386-1.777-2.773-3.55C248.446 660.4 241.533 649.895 235 639l-1.336-2.226C212.748 601.518 200.216 560.68 196 520l-.286-2.7c-.833-8.76-.957-17.509-.964-26.3l-.002-2.38c.09-66.706 23.46-131.686 65.252-183.62l2.484-3.11c6.56-8.008 13.785-15.368 21.079-22.702l1.462-1.48A226 226 0 0 1 306 259l2.057-1.63c10.49-8.233 21.499-15.536 32.943-22.37l2.374-1.418C415.71 190.923 508.069 182.772 587 211"></path>  <path fill="#7b529d" d="M460.508 319.574q3.457.007 6.916.01 7.188.012 14.376.06c6.125.04 12.25.057 18.374.067 5.882.01 11.764.03 17.646.05l3.364.011q4.728.019 9.457.051l2.787.008c28.44.234 54.284 11.67 75.572 30.169l2.625 2.219c21.547 18.656 35.082 46.736 37.16 75.005.395 6.95.444 13.902.488 20.862l.017 2.418q.039 6.342.06 12.684.02 5.16.082 10.32C649.98 520.49 649.98 520.49 639 542l-.871 1.762c-15.008 30.257-39.247 51.826-71.31 62.67-14.427 4.756-28.194 5.883-43.3 5.826l-2.52-.006c-7.84-.023-15.68-.082-23.52-.214-4.33-.07-8.656-.092-12.986-.083a211 211 0 0 1-4.893-.075c-9.252-.398-9.252-.398-17.495 3.242-2.284 2.517-4.184 5.078-6.105 7.878a242 242 0 0 1-4.5 5q-3.343 3.711-6.68 7.43-3.404 3.79-6.82 7.57l-1.418 1.575a1953 1953 0 0 1-4.457 4.925l-1.408 1.566c-3.558 3.907-6.095 6.242-11.467 6.559-3.029-.11-4.777-.288-7.27-2.062-5.119-5.618-5.95-9.717-5.664-17.188l.03-2.992c.04-3.13.127-6.255.216-9.383q.054-3.197.096-6.395c.077-5.203.194-10.404.342-15.605l-1.846-.597-2.436-.797-2.409-.785c-26.957-9.59-47.34-35.144-59.497-59.884-6.452-13.6-9.933-29.032-9.989-44.065l-.02-2.369q-.028-3.855-.041-7.71l-.013-2.687q-.03-7.053-.044-14.107c-.011-4.806-.046-9.612-.085-14.418a1834 1834 0 0 1-.038-11.215 671 671 0 0 0-.035-5.306c-.157-15.709 1.97-30.574 8.078-45.185l1.032-2.506c12.642-29.602 37.003-52.362 66.53-64.701 17.906-6.86 35.283-8.252 54.32-8.094"></path>  <path fill="#fcfcfd" d="M460.508 319.574q3.457.007 6.916.01 7.188.012 14.376.06c6.125.04 12.25.057 18.374.067 5.882.01 11.764.03 17.646.05l3.364.011q4.728.019 9.457.051l2.787.008c28.44.234 54.284 11.67 75.572 30.169l2.625 2.219c21.547 18.656 35.082 46.736 37.16 75.005.395 6.95.444 13.902.488 20.862l.017 2.418q.039 6.342.06 12.684.02 5.16.082 10.32C649.98 520.49 649.98 520.49 639 542l-.871 1.762c-15.008 30.257-39.247 51.826-71.31 62.67-14.427 4.756-28.194 5.883-43.3 5.826l-2.52-.006c-7.84-.023-15.68-.082-23.52-.214-4.33-.07-8.656-.092-12.986-.083a211 211 0 0 1-4.893-.075c-9.252-.398-9.252-.398-17.495 3.242-2.284 2.517-4.184 5.078-6.105 7.878a242 242 0 0 1-4.5 5q-3.343 3.711-6.68 7.43-3.404 3.79-6.82 7.57l-1.418 1.575a1953 1953 0 0 1-4.457 4.925l-1.408 1.566c-3.558 3.907-6.095 6.242-11.467 6.559-3.029-.11-4.777-.288-7.27-2.062-5.119-5.618-5.95-9.717-5.664-17.188l.03-2.992c.04-3.13.127-6.255.216-9.383q.054-3.197.096-6.395c.077-5.203.194-10.404.342-15.605l-1.846-.597-2.436-.797-2.409-.785c-26.957-9.59-47.34-35.144-59.497-59.884-6.452-13.6-9.933-29.032-9.989-44.065l-.02-2.369q-.028-3.855-.041-7.71l-.013-2.687q-.03-7.053-.044-14.107c-.011-4.806-.046-9.612-.085-14.418a1834 1834 0 0 1-.038-11.215 671 671 0 0 0-.035-5.306c-.157-15.709 1.97-30.574 8.078-45.185l1.032-2.506c12.642-29.602 37.003-52.362 66.53-64.701 17.906-6.86 35.283-8.252 54.32-8.094M381 374l-2.242 2.242c-17.954 19.071-24.056 43.289-24.13 68.719l-.026 4.914q-.024 5.136-.028 10.272-.007 5.202-.061 10.402c-.263 25.453.358 47.892 13.487 70.451l1.531 2.633c4.986 7.95 11.678 14.934 18.469 21.367l1.363 1.348C395.203 571.782 408.858 582 417 582v62c4.153-1.038 4.986-1.62 7.813-4.562l2.125-2.208a297 297 0 0 0 7.082-7.964c2.446-2.8 4.96-5.533 7.48-8.266a522 522 0 0 0 10.617-11.867c2.91-3.297 5.898-6.523 8.889-9.746 2.266-2.454 4.097-4.576 5.705-7.526 2.036-2.423 3.173-2.84 6.34-3.404 4.086-.201 8.134-.209 12.222-.156q2.29-.005 4.58-.02c4.022-.02 8.043-.005 12.065.018 6.4.035 12.8.029 19.2.004 2.214-.002 4.426.015 6.638.035 13.058.041 25.294-1.966 37.432-7.025l2.57-1.055c22.195-9.417 40.457-28.167 50.031-50.246 5.968-14.77 7.674-28.982 7.574-44.75q0-2.488.002-4.976 0-5.17-.029-10.339c-.023-4.392-.023-8.783-.016-13.175.003-3.414-.004-6.828-.013-10.241q-.006-2.43-.004-4.857c.005-26.664-8.882-49.988-27.615-69.361C583.48 358.612 567.28 349.843 548 346l-1.924-.532c-2.256-.509-4.275-.602-6.587-.615l-2.726-.022-2.97-.008-3.145-.02q-5.16-.028-10.32-.041l-3.572-.013q-9.375-.03-18.749-.044c-6.421-.011-12.843-.046-19.265-.085-4.964-.027-9.928-.035-14.892-.038q-3.548-.008-7.094-.035c-30.216-.224-54.193 7.89-75.756 29.453"></path>  <path fill="#fdfcfd" d="M444.5 398.75c4.449 4.004 6.097 7.524 7.875 13.25 2.394 7.52 5.09 14.93 8.625 22 .516 3.094.479 5.184-1.129 7.926-2.064 2.775-4.22 5.39-6.605 7.894l-1.641 1.743-1.523 1.503c-1.749 3.07-1.453 5.468-1.102 8.934 8.246 18.57 24.873 33.043 42 43l2.102 1.387c3.577 2.327 6.699 3.436 10.933 3.175 5.1-1.46 8.138-6.45 11.156-10.511L517.5 496c.69-.97 1.382-1.939 2.094-2.937C522 491 522 491 525.252 491.183c3.817.832 6.678 2.022 10.127 3.837 1.168.61 2.337 1.22 3.54 1.85l1.815.967c1.822.972 3.652 1.93 5.483 2.884 15.384 8.095 15.384 8.095 16.51 11.435-.365 8.416-1.91 17.276-7.727 23.719-10.907 9.635-23.845 12.015-37.814 11.325-5.08-.464-9.54-2.204-14.186-4.2l-2.836-1.098C482.038 534.735 466.122 525.568 452 512l-2.453-2.297c-13.617-13.103-24.573-28.972-33.485-45.578l-1.107-2.052c-6.429-12.326-9.52-26.608-5.83-40.323 3.423-9.74 9.193-17.747 17.625-23.687 6.113-1.999 11.952-2.212 17.75.687"></path>  <path fill="#f9f7fa" d="M486.407 391.62c22.9.055 42.025 8.454 58.843 24.067 12.777 13.209 19.153 31.101 19 49.25l.023 2.862-.007 2.728-.007 2.461C564 475 564 475 562 477c-2.5.25-2.5.25-5 0-2.894-2.894-2.334-5.931-2.437-9.813-.778-16.578-5.463-33.083-17.391-45.242-12.395-11.101-26.56-18.32-43.3-19.168l-2.189-.113q-2.145-.1-4.29-.148c-2.906-.11-4.927-.188-7.342-1.891-1.495-2.312-1.396-3.933-1.051-6.625 2.477-2.477 4.016-2.307 7.407-2.38"></path>  <path fill="#f9f8fb" d="M494 410.75c5.171.09 9.26 1.24 14 3.25l3.258 1.371c15.563 7.132 25.37 17.591 31.894 33.426 1.757 5.214 2.76 10.712 1.848 16.203-2 2-2 2-4.5 2.25C538 467 538 467 536 465a130 130 0 0 1-1.25-6.437c-2.6-12.59-8.75-21.894-19.27-29.348-7.213-4.51-14.256-7.162-22.597-8.688C491 420 491 420 489 418c-.187-3.062-.187-3.062 0-6 1.523-1.523 2.88-1.206 5-1.25"></path>  <path fill="#f9f7fa" d="M493 430c8.652.663 17.654 5.469 23.465 11.879 4.359 6.023 8.325 12.495 7.535 20.121-2 2-2 2-4.437 2.438C517 464 517 464 515.5 462.125a148 148 0 0 1-2.512-5.473c-4.204-9.26-9.933-13.122-19.203-16.89C492 439 492 439 491 438c-.187-2.937-.187-2.937 0-6z"></path></svg>