<?xml version="1.0" standalone="no"?>
<!DOCTYPE svg PUBLIC "-//W3C//DTD SVG 20010904//EN"
 "http://www.w3.org/TR/2001/REC-SVG-20010904/DTD/svg10.dtd">
<svg version="1.0" xmlns="http://www.w3.org/2000/svg"
 width="2000.000000pt" height="2000.000000pt" viewBox="0 0 2000.000000 2000.000000"
 preserveAspectRatio="xMidYMid meet">
<metadata>
Created by potrace 1.16, written by Peter Selinger 2001-2019
</metadata>
<g transform="translate(0.000000,2000.000000) scale(0.100000,-0.100000)"
fill="#000000" stroke="none">
<path d="M9017 17914 c-14 -14 -5 -50 37 -159 33 -85 48 -111 63 -113 16 -2
42 24 112 113 95 119 110 157 65 163 -15 2 -37 -19 -88 -83 -38 -47 -71 -83
-75 -80 -3 3 -20 41 -36 83 -23 57 -36 78 -51 80 -11 2 -23 0 -27 -4z"/>
<path d="M6580 17446 c-69 -40 -236 -137 -371 -215 l-246 -141 -46 -98 c-25
-53 -201 -432 -392 -842 -191 -410 -452 -970 -580 -1245 -128 -275 -295 -633
-370 -795 -76 -162 -142 -303 -147 -314 -9 -17 -11 -17 -36 6 -63 57 -222 163
-321 213 -174 87 -322 125 -488 125 -130 0 -224 -23 -328 -79 -142 -78 -391
-224 -424 -248 -140 -107 -236 -273 -284 -493 -30 -138 -30 -437 1 -600 31
-169 67 -298 124 -450 240 -642 707 -1195 1204 -1426 l104 -49 0 -67 c0 -52
-3 -68 -14 -68 -18 0 -74 -64 -81 -93 -4 -18 -65 -1540 -65 -1618 0 -23 -21
-37 -190 -135 -104 -60 -190 -115 -190 -121 0 -19 8 -16 59 16 72 45 313 182
316 179 2 -2 5 -24 6 -51 l3 -47 -79 -46 c-152 -88 -185 -108 -185 -116 0 -17
26 -6 141 62 66 39 124 70 128 70 6 0 41 -63 41 -75 0 -2 -42 -29 -94 -59 -52
-31 -98 -60 -101 -66 -13 -22 23 -8 117 46 l98 55 35 -28 c19 -15 35 -30 35
-33 0 -3 -38 -27 -85 -53 -77 -44 -103 -67 -74 -67 5 0 52 24 102 53 87 50 94
53 122 41 17 -7 42 -13 58 -14 15 0 27 -3 27 -7 0 -5 -43 -32 -95 -61 -52 -30
-98 -58 -101 -64 -17 -28 18 -14 131 51 68 40 146 78 173 86 106 32 196 122
223 226 10 38 8 155 -10 620 -28 733 -29 673 12 697 17 10 172 99 342 197 313
180 344 199 332 211 -3 3 -159 -82 -346 -190 -187 -108 -348 -199 -356 -203
-14 -5 -16 2 -13 47 l3 52 297 172 c164 94 298 177 298 184 0 16 -11 15 -35
-2 -11 -7 -126 -74 -255 -148 -129 -75 -252 -145 -272 -158 l-38 -22 0 54 0
54 63 36 c34 20 139 80 232 133 179 103 203 119 188 128 -5 3 -114 -55 -242
-129 -127 -73 -236 -134 -242 -134 -5 0 -9 39 -9 88 0 98 -17 140 -70 170 -23
13 -30 24 -30 48 l0 31 73 7 c152 15 205 37 497 205 80 46 171 102 203 125 65
45 143 132 182 205 l27 48 241 -140 c133 -76 313 -180 400 -229 l157 -90 0
-437 0 -437 -302 -174 c-167 -95 -336 -192 -375 -214 -40 -23 -73 -47 -73 -53
0 -7 2 -13 5 -13 6 0 386 217 597 342 158 92 148 90 148 30 0 -59 25 -40 -310
-232 -305 -174 -319 -184 -320 -198 0 -16 -7 -20 334 177 154 89 283 161 288
161 4 0 8 -22 8 -49 l0 -49 -77 -44 c-330 -189 -433 -252 -433 -265 0 -12 6
-11 33 5 17 11 64 38 102 59 39 22 137 79 219 127 82 47 151 86 153 86 1 0 3
-24 3 -53 l0 -52 -200 -114 c-183 -104 -221 -131 -188 -131 7 0 94 47 195 105
100 58 185 105 188 105 3 0 5 -9 5 -20 0 -11 9 -25 20 -32 11 -7 20 -16 20
-19 0 -3 -72 -48 -160 -98 -144 -83 -181 -111 -149 -111 6 0 85 44 176 97
l166 96 43 -23 c24 -12 44 -26 44 -29 0 -3 -70 -46 -155 -95 -86 -49 -158 -93
-161 -98 -18 -28 21 -11 172 76 91 53 171 96 178 96 6 0 29 -11 50 -24 l40
-24 -31 -18 c-16 -11 -89 -53 -161 -94 -73 -41 -132 -81 -132 -87 0 -7 2 -13
5 -13 3 0 82 45 175 99 l171 99 44 -25 c25 -13 45 -26 45 -28 0 -2 -72 -45
-160 -95 -94 -54 -160 -98 -160 -106 0 -9 3 -13 8 -11 4 2 82 48 175 101 l167
97 46 -27 c33 -20 42 -29 32 -35 -7 -5 -82 -48 -165 -96 -84 -49 -153 -91
-153 -95 0 -19 39 -1 191 88 l164 96 43 -22 c23 -13 42 -26 42 -31 0 -4 -72
-49 -160 -99 -144 -83 -181 -110 -150 -110 5 0 85 43 177 96 l167 97 43 -23
c24 -12 43 -26 43 -29 0 -4 -63 -42 -140 -86 -158 -90 -188 -111 -178 -121 4
-4 85 37 179 91 l171 99 44 -23 c24 -13 44 -27 44 -30 0 -3 -72 -46 -160 -96
-88 -49 -160 -96 -160 -102 0 -7 3 -13 6 -13 3 0 79 43 170 95 90 52 169 95
174 95 12 0 90 -38 90 -44 0 -4 -235 -143 -287 -170 -18 -9 -33 -23 -33 -32 0
-18 9 -14 207 102 79 46 148 84 154 84 6 0 91 46 188 101 283 163 556 322 561
326 3 3 7 185 10 406 l5 402 235 135 235 136 3 552 2 553 -57 35 c-32 19 -140
83 -240 140 l-183 105 0 2522 c0 1387 -4 2527 -8 2533 -7 11 -145 93 -517 306
-110 63 -290 167 -400 231 -110 64 -207 118 -215 121 -8 3 -71 -27 -140 -68z
m655 -298 c515 -298 524 -303 502 -320 -12 -9 -42 -26 -67 -38 l-45 -21 -289
166 c-192 111 -293 164 -304 160 -15 -6 -15 -8 3 -22 11 -8 136 -81 278 -163
143 -81 263 -152 269 -158 9 -9 -454 -282 -481 -282 -11 0 -92 45 -496 280
-223 129 -414 239 -477 274 -38 21 -68 41 -68 44 0 4 33 25 73 48 73 41 249
143 457 265 63 37 116 68 118 68 2 1 239 -135 527 -301z m-1163 -166 c35 -21
171 -101 303 -177 132 -76 326 -188 430 -248 105 -61 207 -120 227 -131 l38
-21 0 -2531 0 -2531 73 -40 c39 -22 146 -83 237 -135 l165 -95 3 -497 c1 -273
0 -496 -4 -496 -5 0 -69 37 -336 194 -54 32 -105 56 -115 54 -17 -3 -18 -40
-21 -666 -1 -364 -5 -662 -8 -662 -3 0 -132 73 -287 163 -155 90 -364 210
-464 268 l-182 104 -1 676 c0 601 -2 678 -16 690 -8 7 -189 113 -402 235 -213
123 -393 227 -400 231 -11 6 -11 14 -2 38 6 17 23 71 36 120 49 178 42 513
-15 750 -11 44 -19 81 -18 82 2 2 90 -48 526 -300 171 -99 260 -145 273 -141
17 5 18 57 16 1437 l-3 1432 -22 3 c-19 3 -28 -9 -63 -77 -22 -44 -60 -124
-84 -178 -24 -54 -59 -132 -79 -173 -19 -41 -48 -104 -65 -140 -16 -36 -106
-229 -200 -430 -93 -201 -213 -459 -267 -575 -54 -115 -119 -255 -144 -310
l-47 -99 -68 129 c-132 253 -303 491 -492 683 l-121 123 229 492 c127 271 314
674 418 897 104 223 254 547 335 720 347 744 480 1029 511 1098 18 39 36 72
39 72 2 0 33 -17 67 -38z m1718 -2207 c1 -1100 0 -2219 0 -2487 l0 -487 -61
-36 c-33 -19 -62 -35 -65 -35 -2 0 -3 1121 -2 2492 l3 2492 55 32 c30 18 58
32 63 31 4 -1 7 -902 7 -2002z m-162 -577 l-3 -2493 -150 -86 c-224 -128 -332
-189 -336 -189 -3 0 -6 1118 -8 2484 l-3 2484 28 19 c48 31 459 271 467 272 4
1 6 -1121 5 -2491z m-1558 -88 l1 -481 -55 -117 c-30 -64 -98 -209 -150 -322
-91 -197 -97 -206 -141 -234 -25 -15 -48 -26 -51 -23 -3 2 36 93 85 200 50
108 91 201 91 206 0 6 -6 11 -13 11 -8 0 -56 -92 -111 -212 -54 -117 -104
-222 -111 -233 -16 -25 -376 -235 -403 -235 -6 0 -13 11 -16 25 -5 18 31 105
148 357 231 501 278 602 340 732 31 65 56 120 56 122 0 4 285 615 305 654 8
16 17 30 20 30 2 0 4 -216 5 -480z m-2300 -55 c446 -105 943 -559 1245 -1138
196 -375 294 -735 295 -1077 0 -214 -43 -405 -121 -537 -33 -55 -144 -183
-159 -183 -4 0 14 42 40 94 82 164 116 351 107 586 -7 167 -25 289 -67 447
-109 411 -325 817 -610 1146 -92 107 -281 287 -301 287 -26 0 1 -34 98 -125
418 -391 730 -965 825 -1515 26 -147 30 -432 9 -540 -21 -106 -68 -241 -108
-309 -40 -67 -121 -161 -140 -161 -6 0 6 33 26 74 41 82 63 143 88 256 25 108
24 448 0 580 -109 581 -392 1111 -813 1520 -223 216 -427 348 -657 425 -100
33 -219 55 -298 55 -22 0 -38 4 -35 8 2 4 47 29 98 56 148 75 302 92 478 51z
m-327 -214 c363 -96 766 -425 1059 -867 234 -352 394 -759 438 -1114 15 -125
12 -361 -6 -464 -52 -297 -212 -501 -449 -572 -89 -27 -264 -25 -373 5 -382
102 -781 429 -1084 891 -360 546 -514 1177 -402 1640 21 87 91 233 142 297 76
95 198 172 315 199 85 19 259 12 360 -15z m2623 -998 c-7 -7 -225 121 -226
133 0 9 117 264 198 434 l27 55 3 -309 c1 -170 0 -311 -2 -313z m-155 11 c175
-100 159 -84 159 -164 0 -39 -3 -70 -6 -70 -4 0 -388 214 -401 224 -3 3 121
76 128 76 3 0 57 -30 120 -66z m-56 -156 l217 -121 -4 -284 c-2 -155 -5 -283
-8 -283 -8 0 -748 426 -767 442 -7 5 -22 39 -34 75 -18 55 -19 67 -8 78 20 20
362 215 376 215 7 0 109 -55 228 -122z m2003 -966 c15 -10 101 -61 192 -112
91 -51 171 -99 178 -105 11 -10 1 -19 -52 -49 l-66 -37 -204 118 c-113 65
-205 120 -206 123 0 5 120 80 128 80 2 0 16 -8 30 -18z m19 -204 c106 -62 193
-114 193 -118 0 -3 -82 -52 -182 -110 -101 -57 -209 -118 -241 -137 -32 -18
-61 -33 -64 -33 -5 0 -85 46 -376 215 l-37 22 72 43 c222 133 415 239 427 235
8 -3 101 -56 208 -117z m403 -575 l0 -498 -63 -35 c-34 -19 -65 -36 -69 -38
-5 -2 -8 221 -8 495 l1 498 62 36 c34 21 65 37 70 38 4 1 7 -223 7 -496z
m-172 -100 l-3 -497 -230 -133 c-244 -142 -255 -148 -258 -142 -2 2 -1 226 1
496 l4 493 166 99 c268 158 307 180 315 181 4 0 6 -224 5 -497z m-3950 -104
l62 -12 0 -67 c0 -82 -12 -95 -85 -95 -77 0 -85 11 -85 112 0 83 1 85 23 80
12 -3 50 -11 85 -18z m-116 -225 c37 -19 121 -21 172 -4 22 7 45 24 55 41 18
29 18 29 36 9 50 -56 -43 -124 -169 -123 -136 1 -212 56 -175 125 12 21 12 21
31 -5 11 -15 34 -35 50 -43z m-32 -124 c74 -26 173 -26 251 0 34 12 62 20 64
18 3 -5 56 -1423 55 -1506 0 -70 -2 -76 -31 -103 -48 -44 -59 -39 -59 29 0
111 -31 1007 -35 1020 -3 7 -10 10 -16 6 -9 -5 -10 -60 -6 -208 30 -914 30
-888 16 -897 -49 -30 -214 -17 -291 22 -65 33 -79 68 -73 174 3 50 15 320 25
600 11 281 23 590 26 688 4 97 10 177 13 177 3 -1 31 -9 61 -20z m3218 -214
c42 -24 137 -79 211 -121 110 -63 139 -75 162 -70 l29 7 -2 -362 -3 -362 -125
-72 c-69 -40 -177 -102 -241 -139 -64 -37 -118 -67 -120 -67 -2 0 -4 277 -5
615 0 341 3 615 8 615 5 0 43 -20 86 -44z m555 -816 c-5 -4 -34 -22 -65 -39
l-58 -32 0 363 0 364 63 37 62 36 3 -361 c1 -199 -1 -365 -5 -368z"/>
<path d="M3260 13620 c-182 -24 -328 -133 -409 -304 -48 -102 -68 -174 -81
-300 -10 -101 -1 -285 19 -391 85 -438 327 -887 642 -1190 249 -240 504 -372
738 -383 63 -3 125 0 160 8 154 33 286 140 360 290 69 143 84 216 84 425 1
157 -3 196 -26 305 -82 389 -263 743 -547 1069 -124 142 -343 311 -500 385
-148 70 -317 103 -440 86z m255 -89 c176 -49 358 -161 533 -326 68 -64 74 -73
63 -92 -13 -25 -16 -1100 -3 -1118 4 -6 139 -87 300 -179 329 -190 305 -166
276 -285 -22 -87 -73 -198 -111 -238 -30 -32 -34 -33 -113 -33 -243 0 -503
134 -757 392 -118 119 -180 196 -268 328 -157 236 -267 496 -327 768 -30 135
-32 433 -4 536 37 138 108 261 154 270 50 8 187 -4 257 -23z m-414 -62 c-83
-142 -111 -435 -67 -684 115 -646 585 -1300 1090 -1518 95 -41 233 -76 301
-77 37 -1 39 -2 21 -15 -44 -34 -149 -59 -241 -58 -409 2 -901 423 -1182 1011
-230 481 -255 995 -59 1247 17 22 35 45 41 51 21 22 108 85 112 81 2 -3 -5
-20 -16 -38z m1234 -609 c196 -293 313 -584 360 -898 14 -98 20 -242 10 -242
-3 0 -127 70 -275 156 l-270 157 0 526 1 526 45 -50 c25 -27 83 -106 129 -175z"/>
<path d="M10875 16831 c-104 -61 -191 -114 -193 -120 -2 -5 -25 -17 -52 -26
l-49 -16 -117 100 c-64 56 -124 101 -132 101 -11 0 -260 -139 -369 -206 -24
-15 -223 -295 -223 -315 0 -6 39 -81 86 -166 l85 -153 -12 -75 c-11 -72 -8
-384 6 -445 4 -22 -4 -31 -80 -78 -47 -30 -85 -60 -85 -68 0 -8 20 -67 45
-132 25 -64 45 -120 45 -124 0 -3 -80 -53 -177 -109 -421 -243 -416 -240 -488
-314 -143 -146 -224 -340 -278 -667 l-21 -133 -4 -2120 c-2 -1406 0 -2179 7
-2295 22 -355 87 -673 207 -1000 59 -160 206 -447 309 -600 52 -79 94 -144 93
-146 -2 -1 -106 -62 -233 -134 -234 -135 -264 -155 -253 -166 4 -3 117 57 252
135 135 78 249 141 253 140 4 0 19 -14 32 -30 20 -26 22 -32 10 -43 -8 -8 -95
-60 -194 -116 -99 -57 -192 -111 -207 -119 -23 -13 -39 -41 -24 -41 3 0 107
59 232 132 l227 131 28 -34 c16 -19 28 -36 28 -39 0 -3 -89 -56 -199 -118
-110 -63 -202 -117 -205 -122 -17 -27 26 -9 150 62 77 44 156 89 175 100 19
11 50 29 68 40 l33 21 29 -34 c15 -19 26 -37 24 -40 -2 -3 -84 -53 -184 -110
-99 -57 -180 -107 -180 -111 0 -18 35 -2 208 98 l185 106 34 -34 35 -35 -171
-97 c-155 -88 -193 -116 -160 -116 6 0 48 22 93 49 127 76 244 141 255 141 5
0 24 -13 41 -29 l32 -29 -83 -49 c-46 -27 -114 -66 -151 -87 -37 -21 -71 -42
-74 -47 -16 -26 12 -18 88 26 46 26 118 68 161 92 l78 45 34 -27 c19 -14 35
-29 35 -33 0 -4 -35 -27 -78 -51 -178 -103 -212 -125 -204 -133 6 -6 72 27
160 77 l151 87 35 -27 c20 -15 36 -30 36 -34 0 -3 -59 -39 -130 -80 -72 -40
-132 -77 -135 -81 -17 -27 27 -9 150 62 l140 80 33 -18 c61 -33 59 -36 -76
-114 -148 -85 -138 -78 -126 -89 5 -6 40 9 89 38 44 26 105 61 135 79 l56 31
43 -28 42 -28 -125 -74 c-116 -67 -144 -89 -115 -89 6 0 66 31 133 70 67 38
127 70 133 70 15 0 83 -40 83 -48 0 -4 -53 -37 -117 -73 -105 -59 -144 -89
-115 -89 6 0 68 34 138 74 l128 75 36 -21 c19 -12 39 -24 43 -28 5 -4 -46 -38
-112 -76 -66 -38 -121 -75 -121 -83 0 -18 8 -14 151 69 l123 72 50 -24 49 -24
-59 -36 c-32 -19 -92 -54 -132 -78 -45 -25 -70 -46 -65 -51 6 -6 65 23 149 71
l141 80 52 -23 53 -23 -141 -80 c-77 -43 -139 -83 -137 -89 5 -16 17 -10 168
77 l141 81 59 -19 59 -19 -156 -90 c-85 -49 -155 -93 -155 -97 0 -16 24 -7
104 38 44 26 118 68 164 94 l84 47 59 -12 c33 -7 62 -14 64 -17 2 -2 -76 -49
-173 -105 -159 -91 -204 -123 -173 -123 6 0 100 51 209 114 l197 114 89 1 c50
1 87 -1 84 -5 -3 -3 -109 -65 -234 -137 -125 -73 -230 -139 -232 -146 -7 -22
12 -12 265 135 128 74 260 149 295 165 143 69 189 94 543 299 355 205 374 217
456 300 76 76 93 100 143 201 91 185 136 379 156 676 13 175 7 4366 -5 4461
l-7 53 80 -83 c78 -80 81 -85 97 -158 9 -41 27 -115 38 -164 l22 -88 190 -110
c105 -60 199 -114 211 -120 17 -8 44 4 155 68 74 43 154 89 179 102 25 14 55
34 68 45 19 18 83 46 103 47 4 0 60 -45 125 -100 65 -56 125 -100 134 -98 8 2
98 50 198 108 l184 105 99 141 c54 77 101 148 104 157 4 9 -27 76 -80 171
l-87 156 13 90 c11 86 7 329 -7 421 -6 35 -5 36 75 87 45 28 84 57 86 65 6 13
-175 495 -198 531 -8 12 -56 32 -132 55 l-118 36 -75 110 c-88 131 -153 210
-262 324 l-80 84 -36 156 c-19 85 -39 160 -45 167 -9 11 -317 193 -387 228
l-32 17 -193 -112 c-105 -62 -195 -118 -199 -124 -4 -7 -28 -18 -52 -25 l-45
-12 -119 101 c-66 55 -124 101 -128 101 -5 0 -79 -40 -164 -89 l-155 -89 -6
31 c-4 18 -10 60 -13 94 l-7 61 86 56 c47 31 85 60 85 66 0 6 -46 130 -102
276 l-102 265 -110 34 c-60 19 -115 35 -122 35 -8 0 -46 48 -85 108 -87 129
-164 224 -270 335 l-79 82 -37 163 -37 163 -200 116 c-110 64 -207 118 -215
120 -9 2 -101 -46 -206 -106z m362 -58 c84 -48 153 -90 153 -93 0 -3 -64 -43
-143 -88 l-144 -82 -161 94 -162 93 137 81 c76 44 145 81 153 81 7 1 83 -38
167 -86z m-794 -73 c42 -35 73 -68 69 -72 -25 -25 -286 -167 -295 -161 -7 4
-52 40 -101 81 -63 54 -84 77 -75 83 254 151 284 166 305 150 11 -9 55 -45 97
-81z m466 -156 l167 -96 18 -82 c54 -246 47 -231 145 -331 105 -108 187 -210
274 -343 l65 -99 89 -27 c171 -52 144 -22 239 -266 46 -118 87 -223 90 -233 4
-13 -13 -29 -75 -68 -44 -28 -82 -56 -84 -62 -2 -7 2 -48 9 -92 7 -44 13 -138
13 -209 l1 -129 -72 69 c-40 38 -110 100 -155 138 l-83 69 0 67 c0 452 -363
1001 -751 1137 -92 32 -208 36 -284 10 -106 -36 -197 -151 -230 -288 -17 -74
-19 -227 -5 -314 18 -105 20 -98 -33 -106 -80 -12 -152 -39 -254 -95 -53 -30
-98 -53 -99 -51 -5 5 -74 189 -74 197 0 4 36 31 80 60 44 29 80 59 80 67 0 8
-7 69 -16 136 -17 126 -15 220 7 365 l11 77 -81 145 c-44 80 -81 150 -81 156
0 14 142 217 155 221 6 2 62 -40 124 -92 82 -69 118 -94 130 -89 87 39 152 53
236 53 50 1 110 -4 134 -10 31 -7 47 -6 57 2 7 6 25 50 39 97 34 114 33 112
41 112 4 0 82 -43 173 -96z m560 -21 c39 -176 53 -146 -114 -242 -81 -46 -149
-80 -152 -77 -12 12 -60 241 -52 250 12 13 273 166 285 166 6 0 21 -44 33 -97z
m265 -428 c70 -86 140 -186 164 -231 11 -20 2 -27 -139 -109 -83 -48 -151 -86
-153 -84 -1 2 -32 49 -68 104 -67 102 -162 220 -250 311 l-50 52 149 85 148
86 63 -62 c35 -34 96 -102 136 -152z m-1091 -187 c-4 -24 -7 -104 -7 -178 2
-153 27 -270 89 -414 19 -44 33 -81 31 -83 -2 -2 -43 7 -92 20 l-89 24 -22 59
c-57 157 -69 399 -25 512 33 86 47 102 88 102 l36 0 -9 -42z m194 -10 c232
-108 468 -393 577 -696 45 -127 85 -372 59 -360 -5 2 -62 39 -128 82 -138 91
-335 201 -423 236 l-61 24 -46 99 c-98 212 -139 446 -104 606 10 48 12 51 37
45 15 -4 55 -20 89 -36z m-340 -35 c-19 -51 -22 -77 -21 -218 0 -142 3 -171
27 -258 15 -53 27 -99 27 -100 0 -2 -37 1 -82 7 l-82 11 -8 35 c-55 255 -13
458 116 558 16 12 32 22 37 22 4 0 -2 -26 -14 -57z m1558 -96 l69 -23 -141
-81 -140 -81 -72 21 c-39 12 -71 26 -72 31 -1 11 251 156 271 155 8 0 46 -10
85 -22z m223 -283 c46 -119 80 -220 75 -224 -22 -22 -288 -169 -294 -162 -8
10 -156 393 -160 416 -3 15 25 36 136 102 77 45 145 83 150 83 6 1 48 -96 93
-215z m-1713 -270 c157 -32 377 -122 570 -234 851 -490 1372 -1262 1514 -2245
40 -274 43 -441 39 -2595 -4 -2224 -2 -2117 -54 -2367 -46 -226 -155 -436
-274 -532 -22 -18 -40 -30 -40 -28 0 3 16 30 35 62 68 114 130 292 159 461 36
204 37 306 34 2529 -4 2403 0 2231 -64 2556 -92 472 -294 926 -581 1301 -154
202 -413 450 -643 616 -103 73 -329 212 -347 212 -34 0 -6 -30 65 -70 326
-185 644 -458 886 -760 279 -349 499 -836 590 -1308 65 -333 61 -181 61 -2632
0 -2320 1 -2271 -41 -2485 -21 -106 -69 -256 -106 -330 -36 -72 -105 -170
-144 -206 -23 -21 -294 -182 -402 -238 l-23 -12 25 38 c67 100 132 297 169
503 l22 125 0 2285 c0 2493 3 2345 -55 2640 -133 676 -453 1253 -940 1699
-436 398 -1004 681 -1369 681 l-76 0 35 21 c151 92 491 282 535 298 111 42
263 47 420 15z m2954 -204 c83 -47 151 -88 151 -91 0 -7 -274 -169 -286 -169
-4 0 -78 41 -165 92 -131 76 -156 94 -142 102 10 5 74 43 143 83 69 40 130 72
137 70 6 -1 79 -40 162 -87z m-1303 -31 l6 -94 -92 -130 c-115 -162 -116 -164
-96 -203 9 -17 16 -33 16 -36 0 -5 -114 -76 -122 -76 -3 0 -5 71 -4 158 1 86
-3 191 -7 233 l-9 77 49 33 c96 67 238 148 246 140 4 -4 10 -50 13 -102z m490
-26 c51 -43 93 -80 93 -83 0 -9 -289 -172 -298 -168 -17 6 -181 149 -181 157
0 5 48 37 108 71 59 35 121 71 137 81 17 10 34 19 39 19 5 0 50 -35 102 -77z
m484 -171 l165 -98 36 -157 36 -156 84 -88 c46 -48 105 -113 130 -143 50 -59
192 -265 202 -291 3 -10 40 -27 94 -43 48 -15 105 -33 127 -39 l38 -13 89
-229 c49 -127 89 -232 89 -235 0 -3 -36 -28 -80 -55 -44 -28 -81 -54 -83 -60
-3 -5 2 -46 9 -90 17 -104 17 -331 0 -419 l-14 -70 61 -110 c34 -61 72 -131
86 -156 l24 -45 -42 -60 c-24 -33 -59 -84 -78 -112 -20 -29 -39 -53 -42 -53
-4 0 -58 43 -120 96 -74 61 -120 94 -130 90 -9 -3 -43 -15 -76 -28 -52 -20
-76 -23 -175 -21 -63 2 -131 4 -150 5 l-35 3 -34 -105 c-18 -58 -35 -106 -36
-108 -2 -2 -322 177 -342 192 -1 1 -18 73 -37 160 l-35 158 -105 108 c-58 60
-112 119 -120 133 -9 13 -25 75 -37 138 -68 379 -210 759 -403 1078 l-56 91
10 72 c5 40 12 93 15 118 6 42 2 53 -74 188 -45 79 -81 148 -81 155 1 15 148
227 158 227 5 0 57 -43 118 -95 60 -52 113 -95 118 -95 5 0 39 12 75 27 61 26
75 28 186 26 66 -2 136 -4 154 -5 l35 -3 33 108 c19 59 37 107 41 106 4 0 81
-44 172 -97z m563 -48 c16 -70 26 -128 23 -131 -10 -10 -280 -163 -288 -163
-9 0 -9 3 -42 148 l-23 103 71 41 c39 23 105 61 146 85 41 23 77 43 80 43 3 0
18 -57 33 -126z m-3914 61 c408 -86 964 -434 1324 -830 394 -433 645 -954 746
-1550 51 -301 51 -284 51 -2544 0 -1291 -4 -2151 -10 -2221 -28 -325 -94 -544
-216 -716 -234 -330 -678 -324 -1269 16 -535 307 -949 744 -1210 1275 -155
315 -246 616 -300 995 -33 232 -36 508 -33 2575 4 1895 5 2049 22 2170 58 423
197 683 423 791 132 64 292 77 472 39z m4057 -327 c131 -138 303 -373 286
-390 -13 -13 -283 -168 -292 -168 -4 0 -21 21 -36 48 -60 102 -155 224 -267
340 -38 40 -68 75 -65 77 13 13 284 165 294 165 6 0 42 -33 80 -72z m-1756
-109 c49 -87 51 -93 44 -145 -4 -33 -11 -54 -19 -54 -7 0 -38 33 -68 73 -31
39 -71 89 -88 110 -23 28 -29 41 -21 49 13 13 83 56 94 57 4 1 30 -40 58 -90z
m2188 -353 c53 -16 69 -26 60 -33 -7 -5 -70 -42 -139 -82 l-127 -72 -71 21
c-39 12 -73 25 -75 29 -5 7 251 159 269 160 6 1 43 -10 83 -23z m231 -286 c46
-121 82 -222 80 -223 -40 -31 -294 -166 -299 -160 -10 10 -162 402 -164 421
-1 10 276 181 294 182 3 0 43 -99 89 -220z m-69 -412 c0 -7 5 -61 10 -120 10
-101 0 -300 -16 -342 -3 -8 -54 -42 -112 -76 -59 -33 -121 -69 -138 -80 l-31
-20 1 162 c1 90 -3 197 -7 239 l-8 75 43 29 c93 62 233 145 245 145 7 0 13 -6
13 -12z m81 -678 c52 -92 66 -126 57 -132 -7 -5 -29 -17 -48 -27 -19 -11 -82
-47 -139 -80 -57 -34 -105 -60 -106 -59 -11 14 -135 246 -135 254 0 10 281
174 293 171 5 -2 40 -58 78 -127z m-28 -279 c-61 -98 -81 -117 -181 -173 -56
-32 -104 -58 -106 -58 -3 0 16 31 42 68 42 62 58 75 152 130 58 34 107 62 108
62 2 0 -4 -13 -15 -29z"/>
<path d="M12782 14229 c-105 -41 -195 -164 -223 -307 -18 -95 -6 -285 26 -401
31 -114 75 -225 122 -311 161 -290 372 -489 598 -565 102 -35 233 -33 305 2
174 86 253 319 205 599 -68 388 -340 784 -645 939 -36 18 -89 40 -119 49 -77
23 -202 20 -269 -5z m144 -66 c-4 -16 -10 -75 -13 -133 -23 -447 323 -1008
719 -1165 l78 -31 -30 -42 c-95 -131 -276 -144 -470 -34 -201 115 -408 368
-509 625 -124 312 -115 581 23 724 52 53 85 70 71 36 -30 -70 -45 -156 -45
-256 0 -176 47 -355 142 -539 68 -133 193 -308 220 -308 19 0 5 28 -51 99
-113 147 -202 325 -249 499 -22 83 -26 118 -26 247 -1 135 2 156 23 209 29 72
52 96 92 96 29 0 31 -2 25 -27z m201 -32 c379 -178 700 -784 622 -1173 l-11
-56 -37 10 c-92 26 -222 109 -324 207 -190 182 -346 479 -387 733 -13 78 -9
266 5 301 10 24 46 18 132 -22z"/>
<path d="M10069 13611 c-83 -46 -136 -132 -166 -271 -17 -81 -18 -194 -18
-2300 l0 -2215 26 -120 c85 -391 302 -660 644 -800 84 -35 208 -41 261 -13 49
27 110 100 133 162 53 142 51 56 51 2399 0 1908 -2 2182 -16 2274 -51 346
-204 600 -464 771 -136 90 -225 125 -330 129 -70 3 -91 0 -121 -16z m215 -61
c31 -10 79 -31 106 -46 l50 -27 0 -2109 c0 -1401 4 -2141 10 -2206 20 -180 84
-402 116 -402 18 0 19 -1 -15 93 -37 106 -58 206 -71 336 -6 66 -10 858 -10
2183 0 1947 1 2080 17 2074 9 -4 40 -26 69 -49 l53 -42 3 -2075 4 -2075 21
-91 c54 -228 154 -426 272 -538 l31 -30 0 -120 c0 -234 -35 -370 -115 -446
-36 -35 -37 -35 -123 -35 -79 0 -94 4 -163 36 -318 151 -506 407 -569 776 -20
116 -21 154 -20 2300 0 2334 -1 2265 48 2375 25 57 69 108 107 124 43 19 113
17 179 -6z m507 -427 c49 -87 101 -232 126 -353 16 -79 17 -235 20 -2109 3
-1752 2 -2022 -11 -2012 -31 26 -117 162 -151 240 -44 99 -79 233 -94 356 -8
63 -11 689 -11 2065 l1 1975 39 -44 c21 -24 57 -78 81 -118z"/>
<path d="M4102 16452 c-9 -7 -12 -62 -10 -243 l3 -234 25 0 25 0 3 234 c2 229
0 251 -28 251 -3 0 -11 -4 -18 -8z"/>
<path d="M4257 16164 c-10 -10 -8 -446 2 -462 4 -8 19 -12 32 -10 l24 3 0 235
0 235 -25 3 c-14 2 -29 0 -33 -4z"/>
<path d="M15845 12163 c-33 -19 -193 -112 -355 -205 -162 -93 -303 -177 -312
-186 -14 -14 -84 -159 -268 -557 -58 -125 -496 -1066 -1121 -2408 l-479 -1027
0 -553 0 -552 183 -104 c100 -58 288 -166 417 -241 237 -137 713 -413 1130
-653 124 -71 227 -131 229 -133 8 -7 1 -889 -7 -892 -5 -1 -101 -56 -213 -120
-112 -65 -273 -158 -356 -206 -138 -79 -174 -106 -143 -106 6 0 102 53 213
117 111 64 270 156 352 203 l150 87 5 -46 c3 -26 1 -51 -5 -57 -5 -6 -91 -57
-190 -114 -399 -229 -448 -260 -413 -260 12 0 48 20 378 210 102 59 195 112
207 118 20 11 21 9 25 -39 l3 -50 -252 -146 c-228 -131 -275 -163 -243 -163 6
0 86 44 178 97 346 200 324 192 313 111 l-6 -41 -179 -103 c-186 -107 -204
-119 -193 -130 5 -6 266 137 354 194 21 13 23 12 32 -11 6 -14 19 -28 30 -32
12 -3 21 -9 21 -13 -1 -4 -73 -47 -160 -97 -88 -49 -160 -96 -160 -102 0 -7 3
-13 6 -13 3 0 79 43 170 95 90 52 168 95 174 95 13 0 80 -41 80 -48 0 -4 -70
-47 -155 -96 -86 -49 -158 -93 -161 -97 -16 -27 32 -6 176 76 91 52 171 95
179 95 7 0 29 -10 48 -21 24 -15 31 -25 24 -32 -6 -6 -75 -48 -153 -92 -127
-73 -169 -105 -140 -105 6 0 83 42 173 94 154 89 164 94 188 81 74 -39 77 -33
-98 -135 -148 -86 -180 -110 -150 -110 6 0 85 43 176 95 l164 95 39 -20 c21
-11 41 -23 44 -28 3 -5 -52 -41 -122 -82 -188 -108 -192 -111 -192 -121 0 -17
19 -9 183 87 l165 95 41 -20 c22 -12 42 -24 44 -28 3 -5 -66 -48 -154 -98 -87
-49 -159 -96 -159 -102 0 -7 3 -13 7 -13 7 0 108 57 252 143 l83 50 44 -21
c24 -12 44 -25 44 -30 0 -4 -70 -48 -155 -97 -85 -49 -155 -95 -155 -103 0
-16 -3 -17 191 94 80 46 151 84 157 84 14 0 82 -40 82 -48 0 -4 -17 -16 -38
-28 -171 -95 -272 -158 -272 -171 0 -12 6 -11 33 5 17 11 95 56 172 100 l140
80 40 -24 c22 -13 40 -26 40 -30 0 -3 -71 -47 -157 -98 -87 -50 -158 -94 -158
-98 0 -22 3 -20 605 322 143 82 314 180 380 218 l120 70 5 403 5 403 226 131
c125 72 234 137 243 144 14 12 16 69 16 555 0 297 -4 546 -8 552 -6 9 -88 57
-406 239 l-71 41 -3 2531 -2 2531 -183 105 c-100 58 -270 156 -377 217 -504
291 -572 330 -583 330 -7 -1 -39 -17 -72 -37z m385 -209 c168 -97 400 -231
517 -298 117 -66 213 -124 213 -128 0 -4 -27 -23 -60 -43 l-60 -37 -297 171
c-208 119 -300 168 -308 160 -13 -14 -21 -9 294 -189 149 -85 271 -157 271
-160 -1 -5 -212 -127 -392 -227 l-97 -54 -43 22 c-23 12 -58 32 -78 44 -28 18
-719 416 -889 512 l-43 25 83 48 c46 26 156 89 244 140 203 119 329 190 335
190 3 0 143 -79 310 -176z m-981 -270 c13 -9 64 -40 115 -69 248 -142 863
-497 893 -516 l23 -14 2 -2530 3 -2529 237 -136 237 -135 1 -498 0 -499 -62
35 c-35 20 -135 78 -223 130 -122 72 -164 92 -177 85 -17 -8 -18 -53 -20 -668
l-3 -660 -465 268 -465 269 -3 675 c-2 627 -3 676 -20 691 -9 8 -323 192 -697
407 -374 216 -779 450 -900 520 -121 70 -250 145 -287 166 l-68 38 0 522 0
521 81 174 c105 226 266 572 647 1389 170 366 385 827 477 1025 92 198 232
500 312 670 79 171 183 394 231 497 48 103 92 188 97 188 6 0 21 -7 34 -16z
m1751 -2707 l0 -2494 -22 -11 c-13 -6 -42 -23 -65 -37 l-43 -26 0 2493 0 2494
63 36 c34 21 63 37 65 38 1 0 2 -1122 2 -2493z m-160 -96 l0 -2489 -207 -117
c-115 -65 -224 -128 -244 -141 -20 -13 -40 -20 -43 -17 -3 4 -6 1123 -6 2489
l0 2482 68 40 c249 146 418 242 424 242 4 0 8 -1120 8 -2489z m399 -2567 c111
-64 201 -120 201 -124 0 -10 -105 -70 -122 -70 -19 1 -401 223 -402 234 -1 9
101 76 116 76 3 0 97 -52 207 -116z m-129 -117 c91 -53 165 -99 165 -104 -1
-4 -86 -56 -190 -115 -105 -59 -212 -121 -240 -137 -40 -23 -54 -27 -70 -19
-74 38 -385 223 -385 228 0 8 129 86 355 217 l120 70 40 -23 c22 -12 114 -65
205 -117z m373 -559 c-2 -271 -3 -495 -3 -498 0 -6 -114 -70 -124 -70 -3 0 -6
222 -6 494 l0 495 63 35 c34 20 64 36 67 36 3 0 4 -222 3 -492z m-163 -96 l0
-498 -182 -104 c-101 -58 -211 -122 -245 -142 -35 -21 -64 -38 -65 -38 -3 0 2
994 5 996 2 2 224 132 412 242 39 23 71 41 73 42 1 0 2 -224 2 -498z m-869
-680 c57 -32 157 -89 222 -127 102 -59 122 -67 138 -57 10 7 21 12 24 12 3 0
4 -163 3 -362 l-3 -363 -60 -36 c-45 -27 -311 -180 -427 -246 -5 -2 -8 275 -8
616 0 342 1 621 3 621 2 0 50 -26 108 -58z m547 -444 l-3 -362 -55 -33 c-30
-18 -58 -33 -63 -33 -4 0 -6 163 -5 362 l3 362 55 32 c30 18 58 33 63 34 4 0
6 -163 5 -362z"/>
<path d="M15292 9471 c-7 -4 -47 -83 -91 -177 -43 -93 -97 -209 -121 -259 -23
-49 -66 -142 -95 -205 -50 -110 -218 -472 -292 -630 -56 -119 -168 -361 -253
-545 -43 -93 -105 -228 -139 -299 -34 -71 -61 -133 -61 -137 0 -11 38 -35 277
-173 109 -63 254 -146 323 -186 357 -207 455 -261 474 -258 l21 3 3 1427 c2
1368 1 1428 -16 1437 -10 5 -23 6 -30 2z m-13 -784 l1 -368 -152 -327 -152
-328 -49 -28 c-27 -15 -50 -26 -52 -24 -1 2 40 95 92 207 63 134 91 207 85
213 -14 14 -25 -5 -137 -248 l-97 -211 -137 -79 c-135 -78 -323 -184 -327
-184 -2 0 21 51 51 113 44 94 199 425 348 747 129 280 368 793 411 885 29 61
63 135 76 167 l25 56 6 -111 c4 -62 7 -278 8 -480z m-4 -852 c0 -191 -4 -305
-10 -305 -7 0 -200 108 -223 125 -1 1 15 37 36 81 21 43 72 152 113 242 40 89
76 162 79 162 3 0 5 -137 5 -305z m-129 -312 l134 -78 0 -73 c0 -40 -3 -71 -7
-69 -220 121 -393 221 -393 227 0 10 100 69 119 69 8 1 74 -34 147 -76z m-87
-139 l221 -125 0 -157 c0 -86 -3 -214 -7 -283 l-6 -126 -41 22 c-23 13 -124
71 -226 130 -102 59 -286 166 -410 237 -124 71 -229 133 -233 138 -5 4 20 25
55 45 175 102 423 245 424 245 1 0 101 -57 223 -126z"/>
<path d="M4855 10240 c-320 -186 -411 -245 -349 -228 31 9 728 415 732 427 2
6 -2 11 -10 10 -7 0 -175 -95 -373 -209z"/>
<path d="M5190 10296 c-468 -270 -574 -332 -578 -345 -3 -10 0 -12 14 -7 38
14 734 420 734 428 0 18 -32 4 -170 -76z"/>
<path d="M5300 10223 c-91 -52 -237 -137 -325 -188 -88 -51 -179 -103 -202
-116 -24 -13 -43 -30 -43 -36 0 -20 6 -17 104 41 50 29 210 122 356 206 273
158 298 174 283 183 -5 3 -83 -37 -173 -90z"/>
<path d="M5215 10039 c-206 -120 -361 -216 -363 -225 -4 -18 -9 -20 258 134
80 46 220 127 313 180 92 53 167 102 167 109 0 7 -3 13 -7 12 -5 -1 -170 -95
-368 -210z"/>
<path d="M1640 10180 c-13 -24 9 -49 72 -81 24 -12 60 -33 82 -46 l38 -25 -88
-49 c-111 -62 -119 -70 -105 -98 7 -11 17 -21 23 -21 6 0 62 29 124 65 l113
66 114 -66 c121 -69 151 -74 145 -27 -2 20 -21 35 -96 77 -66 38 -89 55 -80
62 7 5 50 31 95 57 44 26 84 53 87 61 5 13 -17 45 -31 45 -3 0 -57 -29 -120
-65 l-114 -66 -113 66 c-62 36 -118 65 -124 65 -6 0 -16 -9 -22 -20z"/>
<path d="M5328 9967 c-219 -126 -363 -216 -358 -221 5 -5 59 19 132 61 312
179 584 336 596 345 13 11 16 28 5 28 -5 -1 -173 -96 -375 -213z"/>
<path d="M5445 9899 c-198 -115 -361 -213 -363 -219 -8 -23 33 -3 257 127 130
75 292 169 361 209 115 66 152 95 118 93 -7 0 -175 -95 -373 -210z"/>
<path d="M5710 9915 c-118 -69 -237 -138 -265 -154 -27 -16 -94 -54 -147 -85
-86 -50 -117 -76 -90 -76 7 0 527 297 710 405 33 20 42 35 20 35 -7 0 -110
-57 -228 -125z"/>
<path d="M7551 9069 c-18 -11 -178 -104 -355 -205 -176 -102 -328 -192 -336
-200 -42 -43 55 7 383 196 196 113 356 211 357 218 0 17 -10 15 -49 -9z"/>
<path d="M7590 8956 c-58 -35 -221 -130 -362 -211 -236 -137 -279 -165 -247
-165 10 0 401 222 677 384 58 35 78 57 50 55 -7 0 -60 -29 -118 -63z"/>
<path d="M7780 8929 c-19 -12 -107 -63 -195 -114 -88 -51 -234 -135 -324 -187
-147 -84 -193 -118 -163 -118 15 0 737 419 740 430 6 16 -21 11 -58 -11z"/>
<path d="M7835 8824 c-49 -29 -210 -122 -357 -206 -147 -84 -267 -159 -268
-167 0 -19 6 -15 223 110 105 62 264 153 352 204 147 86 188 116 153 114 -7 0
-53 -25 -103 -55z"/>
<path d="M18211 8855 c-35 -7 -67 -19 -71 -26 -11 -17 6 -47 74 -134 62 -78
63 -75 -26 -90 -68 -11 -67 -32 12 -134 39 -49 70 -92 70 -95 0 -2 -25 -8 -56
-11 -65 -9 -89 -27 -74 -56 13 -23 13 -23 119 -4 85 15 115 29 107 50 -2 7
-32 49 -65 93 -34 45 -61 85 -61 91 0 5 25 13 55 16 90 12 91 28 7 138 -77
101 -78 98 10 111 46 7 62 23 52 51 -7 18 -61 18 -153 0z"/>
<path d="M7805 8669 c-143 -82 -308 -177 -367 -211 -60 -34 -108 -68 -108 -75
0 -17 -12 -23 245 125 110 64 266 153 348 199 81 47 147 91 147 99 0 8 -1 14
-2 14 -2 0 -120 -68 -263 -151z"/>
<path d="M7935 8607 c-457 -262 -485 -278 -490 -288 -18 -27 48 4 252 123 126
72 287 165 358 206 150 86 138 78 133 92 -2 6 -113 -52 -253 -133z"/>
<path d="M8170 8607 c-630 -363 -638 -367 -598 -367 10 0 342 188 652 369 70
41 104 71 79 71 -4 0 -64 -33 -133 -73z"/>
<path d="M5515 7877 c-73 -19 -154 -66 -181 -107 -46 -67 -26 -157 48 -213 88
-67 269 -88 403 -46 83 25 159 93 170 151 15 78 -51 157 -165 202 -58 23 -208
30 -275 13z m282 -90 c97 -50 118 -106 58 -162 -61 -58 -194 -87 -300 -65
-190 38 -240 151 -100 223 61 31 92 36 195 33 79 -2 104 -7 147 -29z"/>
<path d="M7530 7381 c-14 -5 -44 -20 -67 -33 -39 -22 -48 -24 -93 -14 -34 7
-63 7 -88 0 -44 -12 -1215 -685 -1253 -721 -14 -13 -44 -56 -65 -95 -52 -95
-112 -153 -204 -197 -71 -34 -80 -35 -200 -39 l-125 -3 -217 -125 c-214 -124
-234 -139 -274 -214 -27 -50 -25 -230 3 -316 l20 -61 -191 -111 c-105 -60
-373 -215 -596 -344 -579 -335 -595 -344 -700 -380 -82 -29 -108 -44 -192
-113 -70 -57 -98 -86 -98 -101 0 -18 22 -35 108 -84 l107 -62 140 57 c127 52
146 63 211 123 62 58 154 115 703 430 l632 363 59 -58 c75 -74 156 -123 237
-144 l64 -16 -326 -188 c-214 -123 -323 -191 -316 -198 6 -6 54 16 138 65 70
41 202 118 293 171 488 282 1058 610 1565 902 314 181 579 336 590 346 11 9
97 61 190 114 94 54 178 105 189 114 20 18 66 103 66 123 0 7 25 28 55 46 32
19 67 51 82 74 23 35 28 53 31 132 3 76 0 103 -21 169 -65 201 -235 376 -383
391 -27 3 -60 1 -74 -3z m135 -85 c172 -81 315 -349 275 -515 -20 -83 -90
-136 -90 -68 -1 104 -88 311 -180 425 -28 35 -78 83 -110 106 -43 32 -56 47
-47 54 36 28 89 28 152 -2z m-236 -51 c46 -22 52 -28 40 -39 -8 -7 -111 -68
-229 -136 -118 -68 -336 -194 -485 -280 -148 -86 -296 -171 -327 -189 -32 -18
-58 -39 -58 -47 0 -20 15 -18 58 10 20 13 143 84 272 158 129 75 365 210 523
302 158 91 292 166 297 166 12 0 121 -121 143 -158 l17 -30 -52 -30 c-277
-158 -1065 -615 -1072 -623 -6 -6 -6 -13 0 -19 6 -6 32 4 74 29 370 218 1062
611 1069 606 14 -8 69 -155 73 -194 l3 -35 -546 -315 c-622 -360 -600 -347
-578 -356 15 -6 99 41 694 385 127 73 275 159 330 191 l100 58 3 -49 c4 -67
-25 -131 -75 -165 -21 -15 -114 -70 -208 -124 -93 -54 -352 -203 -575 -332
l-405 -234 -81 3 c-141 4 -246 -28 -350 -108 -28 -22 -53 -40 -55 -40 -3 0 -6
15 -7 33 -11 157 -149 405 -276 499 -25 18 -45 35 -46 38 0 3 24 14 52 24 112
39 214 129 267 233 16 32 37 68 47 80 11 11 111 74 224 139 113 65 383 220
600 346 443 255 434 252 539 203z m-1802 -1065 c133 -65 281 -273 318 -445 36
-173 4 -274 -106 -331 l-29 -14 8 32 c4 18 7 67 6 108 -1 112 -63 300 -99 300
-19 0 -19 3 10 -65 38 -85 56 -161 56 -241 1 -102 -16 -151 -64 -181 -64 -41
-62 -42 -63 59 0 54 -8 121 -18 158 -24 92 -97 234 -159 309 -61 75 -176 167
-229 183 -21 6 -38 14 -38 18 0 6 83 56 204 123 63 35 110 32 203 -13z m-367
-207 c34 -17 84 -56 131 -103 62 -63 85 -96 127 -181 65 -132 89 -241 73 -330
-13 -77 -36 -117 -81 -140 -50 -27 -96 -23 -176 15 -70 33 -180 128 -169 146
3 5 41 29 85 54 44 26 84 55 90 65 36 68 -40 201 -115 201 -11 0 -58 -22 -105
-49 -47 -27 -88 -46 -92 -43 -15 15 -38 130 -38 192 2 185 106 253 270 173z
m1220 -250 c0 -5 -89 -59 -198 -121 -108 -62 -221 -126 -249 -143 l-53 -30 16
38 c37 87 69 118 196 192 l123 70 83 1 c45 0 82 -3 82 -7z m-1221 -119 c12
-15 21 -30 21 -34 0 -5 -168 -105 -372 -223 -205 -118 -461 -266 -568 -328
-107 -62 -289 -167 -405 -233 -202 -116 -211 -123 -235 -170 -32 -63 -52 -77
-181 -130 l-107 -44 -43 25 c-101 58 -99 47 -20 111 55 45 91 64 167 91 100
35 244 116 1439 809 143 83 265 151 272 152 6 0 21 -12 32 -26z"/>
<path d="M2862 6761 c-94 -54 -179 -104 -187 -111 -36 -30 -17 -47 171 -156
103 -59 192 -107 199 -107 7 0 97 48 199 108 157 91 186 112 184 129 -2 15
-52 49 -187 129 -102 59 -189 107 -195 107 -6 0 -89 -45 -184 -99z m358 -74
c52 -30 95 -59 97 -63 2 -7 -224 -144 -267 -162 -4 -1 -71 34 -150 79 -122 70
-140 83 -124 92 11 6 75 43 143 83 l125 73 40 -24 c23 -13 84 -48 136 -78z"/>
<path d="M11352 6488 c-226 -131 -360 -214 -354 -220 8 -8 145 68 665 369 72
42 94 64 65 63 -7 -1 -176 -96 -376 -212z"/>
<path d="M11705 6556 c-77 -45 -240 -140 -363 -211 -122 -70 -225 -131 -227
-136 -15 -23 20 -13 86 25 270 155 655 378 658 382 3 2 0 8 -5 13 -5 5 -68
-26 -149 -73z"/>
<path d="M11600 6358 c-201 -116 -367 -212 -369 -214 -3 -3 0 -8 5 -13 8 -7
708 389 735 416 6 6 7 13 2 16 -5 3 -173 -89 -373 -205z"/>
<path d="M12020 6466 c-30 -18 -143 -84 -250 -146 -107 -62 -246 -142 -307
-178 -103 -59 -131 -82 -103 -82 6 0 72 36 148 79 75 44 237 137 359 208 122
70 223 132 223 138 3 18 -15 13 -70 -19z"/>
<path d="M11840 6224 c-195 -113 -359 -209 -364 -214 -5 -5 -7 -13 -3 -16 3
-4 73 31 154 78 435 249 559 321 571 330 13 11 16 28 5 28 -5 0 -168 -93 -363
-206z"/>
<path d="M12135 6259 c-93 -55 -254 -148 -357 -207 -103 -59 -188 -113 -188
-119 0 -7 2 -13 5 -13 5 0 122 67 565 323 152 88 193 118 158 116 -7 0 -89
-45 -183 -100z"/>
<path d="M12070 6084 c-195 -113 -359 -209 -363 -213 -5 -5 -5 -11 0 -14 10
-7 736 408 741 423 2 6 -2 10 -10 10 -7 0 -173 -93 -368 -206z"/>
<path d="M12340 6104 c-118 -69 -284 -164 -367 -212 -84 -48 -153 -90 -153
-94 0 -18 35 -4 151 63 68 40 225 130 349 201 229 132 258 152 243 161 -4 3
-105 -51 -223 -119z"/>
<path d="M7545 6196 c-11 -7 -141 -83 -290 -168 -293 -168 -1329 -766 -1435
-828 -36 -21 -193 -112 -350 -202 -658 -380 -610 -351 -592 -362 4 -2 69 30
143 73 73 43 413 239 754 436 341 197 708 409 815 470 189 109 533 308 848
489 139 81 174 107 140 105 -7 0 -22 -6 -33 -13z"/>
<path d="M7530 6051 c-102 -59 -322 -186 -490 -283 -349 -201 -639 -369 -1200
-693 -496 -286 -537 -310 -745 -430 -93 -54 -285 -164 -425 -245 -373 -216
-910 -526 -1187 -686 -134 -76 -243 -145 -243 -151 0 -7 2 -13 5 -13 4 0 403
230 961 553 72 42 306 177 520 300 214 123 535 309 714 412 179 103 397 230
485 280 191 110 805 465 1290 745 193 111 389 225 438 252 80 46 105 69 75 67
-7 0 -96 -48 -198 -108z"/>
<path d="M12469 6042 c-443 -255 -529 -306 -529 -315 0 -5 8 -7 18 -5 18 5
711 403 725 418 5 4 5 10 0 13 -5 3 -101 -47 -214 -111z"/>
<path d="M7725 6027 c-61 -35 -274 -158 -475 -274 -201 -116 -567 -328 -815
-471 -247 -142 -697 -402 -1000 -577 -302 -175 -624 -361 -715 -413 -91 -52
-250 -145 -355 -205 -242 -140 -512 -296 -787 -454 -197 -113 -240 -143 -207
-143 9 0 530 299 1344 770 88 51 250 145 360 208 110 63 416 240 680 392 826
478 1906 1101 1999 1154 79 45 115 76 89 76 -5 0 -58 -28 -118 -63z"/>
<path d="M7585 5811 c-187 -108 -547 -317 -800 -463 -253 -146 -606 -350 -785
-453 -424 -245 -555 -321 -670 -387 -84 -49 -118 -78 -93 -78 5 0 162 88 348
196 187 108 428 247 535 309 107 61 240 138 295 170 141 82 1025 592 1300 751
210 121 260 155 223 153 -7 0 -166 -89 -353 -198z"/>
<path d="M9306 5914 c-140 -19 -264 -56 -386 -116 -83 -42 -119 -66 -175 -122
-94 -93 -108 -125 -115 -257 -5 -93 -9 -111 -32 -146 -50 -76 -56 -80 -538
-358 -179 -103 -397 -229 -485 -280 -1313 -762 -1503 -867 -1645 -909 -30 -9
-116 -21 -190 -26 -222 -15 -354 -60 -456 -153 -31 -28 -65 -72 -81 -105 -26
-52 -28 -68 -31 -193 -2 -78 1 -160 8 -192 14 -70 62 -147 91 -147 14 0 67 46
157 136 l136 137 90 -5 c86 -5 229 -39 240 -57 3 -5 -24 -36 -59 -70 l-65 -63
0 -112 0 -112 -291 -169 c-178 -103 -287 -171 -281 -177 6 -6 117 53 288 151
256 149 282 161 328 162 28 0 74 4 101 9 28 4 51 7 53 5 2 -1 -124 -76 -280
-166 -156 -90 -323 -186 -373 -215 -82 -47 -113 -74 -86 -74 6 0 90 47 188
103 475 277 655 377 724 406 85 35 159 79 204 121 17 15 138 89 270 165 132
76 292 168 355 205 63 37 232 135 375 217 836 482 1765 1018 1793 1035 21 13
30 24 24 30 -6 6 -28 -2 -58 -20 -27 -16 -535 -310 -1129 -652 -594 -343
-1187 -685 -1317 -761 -131 -76 -238 -135 -238 -132 0 2 10 39 22 80 26 90 71
145 180 220 40 27 271 164 513 303 242 139 519 299 615 355 96 56 315 182 485
280 171 98 395 228 500 289 330 191 401 213 740 226 175 6 248 13 305 28 215
57 361 160 429 302 25 54 26 60 26 255 0 200 0 200 -28 255 -33 63 -64 100
-85 100 -8 0 -93 -78 -187 -174 -168 -169 -175 -174 -223 -181 -54 -7 -171 6
-265 31 -72 18 -187 63 -187 73 0 3 50 56 110 116 l110 110 0 112 c0 155 5
152 -174 127z m-88 -201 c-75 -76 -139 -148 -143 -160 -30 -104 273 -257 536
-270 172 -9 161 -14 344 168 89 87 163 159 167 159 3 0 16 -24 28 -52 95 -222
-103 -446 -450 -509 -36 -6 -146 -13 -245 -14 -197 -4 -285 -17 -425 -66 -90
-31 -117 -46 -560 -301 -157 -91 -537 -310 -845 -488 -1130 -652 -1073 -617
-1166 -718 -42 -45 -60 -73 -73 -118 -26 -89 -55 -142 -100 -179 -47 -38 -138
-85 -211 -110 -63 -21 -175 -44 -175 -36 0 3 43 49 96 102 105 105 114 127 77
177 -70 93 -370 184 -505 153 -49 -11 -63 -22 -174 -132 l-122 -121 -17 46
c-20 52 -16 125 8 173 60 115 267 213 451 213 205 0 352 56 741 280 152 88
460 265 815 470 107 62 339 196 515 297 633 365 721 417 775 459 101 76 141
157 138 282 -2 84 9 115 65 186 67 85 263 184 447 225 163 37 163 39 8 -116z
m85 -125 l-108 -108 -30 30 -30 30 135 135 135 135 3 -57 3 -57 -108 -108z
m856 -436 c-39 -139 -210 -260 -432 -306 -47 -10 -149 -18 -269 -20 -210 -5
-300 -19 -430 -67 -105 -38 -111 -42 -543 -291 -209 -121 -452 -262 -540 -312
-1341 -774 -1296 -748 -1389 -815 -43 -31 -90 -71 -104 -89 -14 -18 -26 -31
-28 -29 -7 7 38 137 59 168 55 82 97 108 922 584 743 428 869 501 995 575 557
324 631 361 789 396 37 9 162 19 286 23 148 6 244 14 295 26 149 35 280 104
356 188 44 47 53 39 33 -31z m-4314 -1801 c93 -32 162 -71 172 -97 3 -9 -7
-28 -26 -48 l-32 -33 -84 29 c-102 35 -232 54 -300 44 -46 -7 -57 -15 -156
-112 -58 -57 -108 -104 -112 -104 -4 0 -7 22 -7 48 l0 48 135 133 135 134 93
-6 c68 -4 118 -14 182 -36z m538 -226 c-28 -91 -37 -110 -78 -150 -77 -76
-264 -154 -415 -171 l-61 -7 3 69 3 69 50 8 c202 33 363 98 454 183 31 29 57
51 58 50 1 -1 -5 -24 -14 -51z"/>
<path d="M7895 4583 c-253 -146 -710 -409 -1015 -585 -305 -176 -592 -343
-637 -370 -79 -47 -100 -68 -69 -68 8 0 213 115 457 256 1384 798 1537 887
1647 951 87 50 103 65 84 77 -4 2 -214 -115 -467 -261z"/>
<path d="M7740 5763 c-129 -74 -309 -178 -400 -231 -91 -52 -253 -145 -360
-207 -289 -167 -534 -309 -925 -535 -192 -111 -419 -241 -502 -289 -84 -47
-153 -92 -153 -98 0 -7 3 -13 6 -13 5 0 545 310 1309 752 72 41 382 220 690
398 308 177 566 328 573 335 8 7 10 15 5 18 -5 3 -114 -55 -243 -130z"/>
<path d="M13245 5747 c-33 -18 -128 -72 -210 -121 l-150 -87 -60 -87 c-33 -47
-116 -165 -184 -261 -598 -845 -607 -859 -613 -907 -11 -96 36 -226 114 -310
26 -28 95 -76 190 -131 136 -79 148 -88 131 -101 -10 -7 -105 -63 -210 -124
-174 -100 -214 -128 -183 -128 11 0 404 223 427 242 8 6 26 1 57 -17 25 -15
46 -28 46 -30 0 -1 -94 -58 -210 -125 -179 -103 -232 -140 -205 -140 10 0 68
32 258 142 l187 109 46 -27 c54 -32 76 -12 -188 -163 -178 -102 -220 -131
-188 -131 6 0 109 57 230 126 l219 126 41 -23 c22 -13 39 -27 38 -31 -2 -4
-95 -61 -208 -127 -181 -105 -233 -141 -202 -141 5 0 107 57 228 126 l218 127
43 -23 c24 -13 43 -26 43 -29 0 -3 -95 -60 -210 -126 -115 -66 -209 -126 -210
-132 0 -7 2 -13 5 -13 3 0 105 57 226 127 l221 127 44 -23 c24 -13 41 -27 39
-31 -3 -5 -97 -61 -210 -126 -113 -65 -205 -124 -205 -132 0 -15 19 -5 290
151 l164 96 37 -22 c20 -12 37 -26 39 -31 1 -6 -88 -62 -198 -125 -207 -119
-239 -141 -210 -141 9 0 114 56 233 125 l217 126 44 -26 c24 -14 44 -27 44
-29 0 -2 -97 -59 -215 -126 -194 -111 -236 -140 -205 -140 6 0 109 57 230 126
l220 126 46 -27 45 -27 -138 -80 c-76 -44 -173 -100 -215 -125 -70 -40 -95
-63 -69 -63 8 0 144 76 350 198 l95 55 43 -23 c24 -12 43 -26 43 -29 0 -3 -92
-60 -205 -125 -113 -65 -208 -123 -211 -128 -18 -29 27 -8 227 108 l222 127
43 -23 c24 -12 44 -26 44 -29 -1 -3 -95 -60 -210 -126 -115 -66 -210 -126
-210 -132 0 -7 2 -13 4 -13 5 0 64 34 279 158 87 51 163 92 168 92 23 0 91
-42 82 -51 -5 -5 -99 -61 -209 -124 -117 -67 -200 -120 -202 -130 -2 -10 0
-15 5 -12 4 2 106 61 226 131 l219 126 44 -26 c24 -14 44 -27 44 -28 0 -2 -97
-59 -215 -127 -118 -68 -215 -127 -215 -131 0 -18 35 -1 243 118 121 69 238
131 261 138 23 6 131 62 240 125 233 134 241 144 234 265 -4 64 -27 128 -231
652 -125 320 -227 586 -227 591 0 5 13 16 29 24 103 49 670 386 671 398 0 7
-6 11 -12 8 -7 -2 -165 -93 -352 -201 -306 -177 -356 -204 -356 -192 0 2 -7
20 -15 39 l-15 36 313 181 c171 100 314 184 316 185 1 2 1 9 -1 15 -2 6 -140
-69 -308 -166 -168 -97 -310 -178 -316 -181 -10 -4 -52 74 -43 81 2 1 123 71
269 155 146 84 272 159 280 167 44 42 -43 0 -285 -141 -147 -85 -271 -152
-276 -150 -9 6 -33 75 -27 80 2 2 87 52 188 110 261 151 290 168 290 177 0 18
-34 1 -257 -128 -129 -74 -236 -134 -237 -132 -1 2 -9 20 -19 40 l-17 38 27
17 c15 10 106 63 202 119 157 91 203 124 173 124 -6 0 -100 -52 -209 -115
l-198 -114 -17 37 c-9 20 -17 40 -17 43 -1 4 73 49 164 100 90 52 165 100 165
108 0 18 -8 14 -185 -88 -151 -88 -156 -90 -164 -68 -89 232 -157 401 -178
436 -39 67 -89 117 -146 145 -68 34 -109 33 -182 -7z m154 -51 c33 -17 104
-93 124 -133 15 -27 283 -713 682 -1745 96 -245 176 -466 180 -490 4 -24 2
-55 -4 -70 -9 -25 -92 -87 -116 -88 -5 0 -11 23 -13 51 -2 39 -80 250 -325
881 -177 457 -328 833 -335 835 -31 13 -44 48 315 -877 24 -63 55 -142 68
-175 13 -33 44 -114 70 -180 25 -66 74 -190 108 -275 47 -120 62 -170 65 -221
l4 -65 -62 -37 c-34 -20 -63 -37 -65 -37 -1 0 -5 26 -7 58 -5 51 -270 747
-815 2137 -59 150 -106 221 -181 267 -21 13 -30 24 -24 30 5 5 63 40 128 79
123 72 154 80 203 55z m-337 -229 c79 -60 93 -88 269 -542 21 -55 110 -284
198 -510 87 -225 203 -522 256 -660 53 -137 126 -324 163 -415 51 -128 66
-180 70 -231 4 -58 1 -70 -17 -88 -40 -40 -47 -36 -426 184 -93 54 -199 115
-235 135 -446 251 -1103 640 -1138 674 -74 71 -128 213 -104 276 10 26 59 96
551 793 l294 417 38 0 c27 0 50 -9 81 -33z"/>
<path d="M13022 4838 c-9 -9 -12 -102 -12 -358 0 -365 1 -370 46 -370 53 0 54
4 54 370 0 294 -2 341 -16 354 -18 19 -55 21 -72 4z"/>
<path d="M13012 3967 c-44 -46 -15 -120 47 -120 39 0 58 18 67 60 5 26 1 37
-19 57 -32 32 -67 33 -95 3z"/>
<path d="M7574 5532 c-93 -55 -323 -188 -511 -297 -189 -108 -343 -201 -343
-206 0 -5 6 -9 13 -8 20 0 1020 583 1025 597 2 7 0 12 -5 12 -5 0 -85 -44
-179 -98z"/>
<path d="M11269 5104 c-22 -26 1 -48 57 -54 l49 -5 -199 -115 c-109 -63 -208
-122 -219 -131 -22 -17 -18 -45 7 -55 12 -4 339 175 458 252 21 13 40 24 43
24 3 0 5 -15 5 -34 0 -44 24 -70 51 -56 16 9 19 22 19 88 0 47 -5 83 -12 90
-8 8 -51 12 -129 12 -94 0 -119 -3 -130 -16z"/>
<path d="M14590 4812 c-479 -276 -530 -306 -521 -315 6 -6 155 74 372 200 318
183 396 233 362 233 -4 0 -100 -53 -213 -118z"/>
<path d="M14850 4826 c-30 -18 -113 -66 -185 -108 -415 -239 -485 -280 -485
-289 0 -5 4 -9 10 -9 5 0 132 71 282 158 150 87 315 182 366 211 85 50 110 71
80 71 -7 0 -38 -15 -68 -34z"/>
<path d="M14915 4727 c-60 -35 -218 -126 -350 -201 -242 -139 -274 -160 -262
-172 3 -4 97 46 209 111 112 64 278 161 370 214 92 53 168 99 168 104 0 16
-31 4 -135 -56z"/>
<path d="M9755 4519 c-209 -121 -456 -265 -550 -318 -163 -94 -1234 -712
-1575 -909 -91 -52 -205 -119 -255 -147 -162 -94 -276 -159 -565 -327 -157
-90 -394 -227 -527 -304 -134 -76 -243 -145 -243 -151 0 -17 11 -16 35 1 11 7
110 65 220 128 174 100 714 412 1625 938 555 321 1531 884 2018 1165 204 117
244 145 210 145 -7 0 -184 -100 -393 -221z"/>
<path d="M14905 4585 c-138 -80 -303 -175 -367 -212 -65 -37 -118 -74 -118
-80 0 -19 5 -17 94 36 44 26 205 119 356 206 281 161 309 179 293 188 -5 3
-121 -59 -258 -138z"/>
<path d="M8905 4574 c-137 -79 -252 -151 -253 -160 -2 -9 0 -14 5 -12 126 69
523 303 523 309 0 19 -35 2 -275 -137z"/>
<path d="M9765 4389 c-236 -136 -447 -258 -467 -271 -37 -22 -48 -38 -27 -38
9 0 923 523 938 536 3 3 0 8 -5 13 -5 5 -188 -95 -439 -240z"/>
<path d="M9100 4414 c-225 -131 -1176 -681 -1890 -1092 -129 -74 -275 -159
-325 -188 -83 -48 -238 -137 -845 -487 -230 -132 -259 -152 -247 -163 3 -4
100 47 214 114 114 66 498 287 853 492 693 400 947 547 1160 670 203 118 558
323 928 535 283 162 363 215 325 215 -5 0 -82 -43 -173 -96z"/>
<path d="M9853 4302 c-189 -108 -343 -203 -343 -209 0 -7 2 -13 4 -13 3 0 101
55 218 123 117 68 275 159 351 203 128 73 155 94 125 94 -7 0 -167 -89 -355
-198z"/>
<path d="M9382 4440 c-27 -16 -197 -115 -632 -365 -71 -41 -462 -267 -745
-430 -121 -70 -350 -203 -510 -295 -768 -443 -1148 -663 -1348 -778 -134 -78
-214 -129 -208 -135 9 -9 156 73 836 468 116 67 242 140 280 162 39 22 259
149 490 282 231 134 584 338 785 454 201 116 462 267 580 335 118 69 278 161
355 205 77 44 146 85 153 92 23 22 -3 25 -36 5z"/>
<path d="M16435 3560 c-323 -187 -390 -230 -356 -230 8 0 637 359 719 411 24
15 29 29 10 28 -7 0 -175 -94 -373 -209z"/>
<path d="M16735 3596 c-471 -271 -539 -312 -543 -325 -3 -10 0 -12 13 -7 37
14 735 421 735 428 0 19 -35 2 -205 -96z"/>
<path d="M16910 3561 c-74 -43 -228 -132 -343 -198 -219 -126 -266 -157 -256
-167 10 -10 739 414 739 430 0 8 -1 14 -2 14 -2 0 -64 -36 -138 -79z"/>
<path d="M16795 3359 c-205 -118 -361 -215 -363 -224 -4 -20 -23 -29 218 110
102 59 260 150 353 203 92 53 167 103 167 109 0 7 -3 13 -7 12 -5 -1 -170 -95
-368 -210z"/>
<path d="M16908 3287 c-224 -129 -363 -216 -358 -221 9 -9 196 95 604 334 113
66 158 101 129 100 -4 0 -173 -96 -375 -213z"/>
<path d="M17155 3294 c-126 -74 -290 -168 -362 -210 -120 -68 -154 -94 -122
-94 8 0 539 302 707 402 32 20 43 39 20 37 -7 0 -116 -61 -243 -135z"/>
<path d="M17146 3152 c-319 -185 -392 -232 -358 -232 5 0 146 79 313 176 167
97 332 192 367 212 59 35 76 52 50 52 -7 0 -175 -94 -372 -208z"/>
<path d="M9764 2645 c-11 -28 4 -42 95 -95 50 -28 91 -53 91 -55 0 -3 -43 -30
-96 -61 -78 -46 -95 -60 -92 -77 5 -38 40 -30 148 33 58 33 109 60 114 60 5 0
56 -27 114 -61 108 -63 145 -71 150 -33 2 17 -15 32 -97 80 l-100 60 95 53
c52 29 97 57 100 62 9 15 -6 49 -23 49 -9 0 -64 -28 -122 -61 -58 -34 -110
-62 -116 -62 -5 0 -58 28 -116 62 -110 63 -136 71 -145 46z"/>
<path d="M6155 2304 c-137 -80 -267 -155 -289 -166 -27 -14 -35 -23 -28 -30 8
-8 32 1 84 31 40 24 171 99 291 169 200 116 238 142 205 142 -7 0 -125 -66
-263 -146z"/>
</g>
</svg>
