<svg xmlns="http://www.w3.org/2000/svg" viewBox="0 0 264.58333 95.227339">
    <path d="M132.29167 0C59.199637 0 0 21.2823 0 47.614671 0 73.939043 59.203842 95.227343 132.291867 95.227343 205.3889 95.227343 264.58373 73.938043 264.58373 47.614671 264.58373 21.2813 205.3899 0 132.29187 0Z" fill="#00095b"/>
    <path d="M132.96168 91.051284c-70.384996 0-127.4418-19.661277-127.4418-43.916619 0-24.258342 57.057804-43.91862 127.4418-43.91862 70.37799 0 127.43179 19.659278 127.43179 43.91862 0 24.254342-57.0558 43.916619-127.43179 43.916619Zm0-84.030185c-67.911961 0-122.961737 17.956253-122.961737 40.113566 0 22.158312 55.047776 40.116565 122.961737 40.116565 67.91095 0 122.95173-17.959253 122.95173-40.116565 0-22.157313-55.04478-40.113566-122.95173-40.113566Z" fill="#fff"/>
    <path d="M99.718411 14.153162c-1.808602.0057-3.626498.07607-5.456522.225827-12.155159 1.013013-23.724873 7.789341-23.745873 18.077476-.013 5.217068 3.732823 9.444366 9.5369 9.258363 6.820089-.229002 12.418952-5.63915 15.34999-12.46024 1.112015-2.588034-.947521-3.663016-1.927534-2.172997a17.298244 17.298244 0 0 1-6.882277 6.061655c-3.209042 1.55602-6.639117 1.136192-7.67913-1.443842-1.462019-3.640047 1.577064-9.086919 8.512155-11.649952 10.017131-3.672048 20.49805-1.242988 30.58319.633037.144 0 .6812.295017.20619.54002-1.80603.975013-3.58411 1.767889-6.35414 4.127919-1.98603 1.684023-4.58601 3.926065-6.59703 6.368096-1.99602 2.407032-3.41086 4.553923-5.282885 6.933954-.261004.344005-.582261.328146-.578261.328146-4.563059.763009-9.030095 1.27416-13.120148 4.090196-.846012.578007-1.213225 1.603995-.700217 2.389005.461005.696009 1.515402.769887 2.247411.242879 2.541034-1.882024 5.157098-2.767959 8.157137-2.849959.131002.008.193994.02904.230994.109037.023.045.009.139807-.04496.209807-4.494059 6.173081-5.619453 7.568137-9.000498 11.395187-1.729022 1.967026-3.42989 3.627214-5.329915 5.355237-7.6761 7.061092-15.932443 6.939053-18.894482 2.511995-1.770023-2.657035-1.536737-5.446231-.376722-7.760262 1.428019-2.834037 4.313781-4.911167 6.713812-6.124183.891011-.450006 1.147294-1.578033.255282-2.606046-.567007-.670008-1.942218-.789067-2.966231-.603065-3.144042.575008-6.859213 2.928343-9.054242 5.760381-2.474032 3.17804-3.709898 7.036191-3.294894 11.366248.745011 7.813102 7.242154 12.326204 14.618251 12.274204 5.869305-.0454 11.397783-1.806217 18.050088-8.492517 6.201081-6.236082 11.850509-15.551144 17.14058-24.189257.166-.276004.28378-.423967 1.08779-.522967 3.31805-.411005 8.21743-.87885 11.35747-1.058851.69801-.038.83983-.0303 1.11983.31471.81801 1.022014 2.04681 1.88942 3.03082 2.417427.48001.258003.7082.386741 1.08521.392741.465.01.82692-.237709 1.06092-.499712.33301-.362004.42495-.835497.24495-1.1405-.18801-.320005-2.37775-1.521626-2.44275-2.007633-.048-.303004.2868-.376205.2868-.376205 1.61002-.500006 3.28499-1.529031 4.3-3.454057.99701-1.895025 1.15791-4.424126-.66611-5.830144-1.60102-1.235016-4.02-1.040127-5.95003.674895-1.88802 1.665021-2.51275 4.087455-2.25775 6.210483.046.368005.0269.491818-.48007.533818-2.90204.230003-5.69822.309838-8.80826.47284-.208.015-.27396-.121065-.15296-.264067 3.58104-6.160081 8.92792-10.546758 14.84201-14.866815.392-.291003.27231-.844376.25631-1.306382 10.67814 2.29703 20.99747 6.572268 32.07561 6.481268 4.58107-.037 8.96685-.726926 13.15891-3.003955 3.68704-1.991026 5.18322-3.83292 5.29322-5.746945.086-1.323018-.84326-2.159311-2.16628-1.874307-11.19314 2.546034-21.8712 2.517927-33.00733 1.183909-12.71917-1.528645-24.92411-4.675563-37.584331-4.6359Zm22.342859 17.852684c.2616.01386.50635.100716.70435.268718.59001.499006.31075 1.744035-.28526 2.606046-.65101.951012-1.7551 1.771973-2.76211 1.971976-.202.037-.37692-.04895-.45992-.491961h-.001c-.164-1.173016.22227-2.743918 1.48828-3.850933.39626-.346879.87968-.526942 1.31569-.503846Zm89.85459.224793c-2.03502 0-4.70389.0036-6.82491.0036-.505 0-.76611.06106-1.00511.526067-.78201 1.485019-10.32042 15.638499-12.09644 18.387535-.29801.418006-.6639.3597-.7059-.117305-.18-1.632022-1.60324-3.507927-3.84628-4.40594-1.71002-.687008-3.38205-.810913-5.11908-.582911-3.13703.417006-5.93164 2.057136-8.38968 3.904161-3.70304 2.789037-6.89754 6.399709-11.0226 9.069744-2.25203 1.453019-5.33498 2.720466-7.39801.830441-1.86701-1.714022-1.65711-5.522123 1.19993-8.466162.30101-.309004.66213-.05118.60513.225826-.27 1.332017.0621 2.656304 1.08314 3.585316 1.24601 1.105015 3.02979 1.231004 4.5558.492994 1.80202-.883011 2.86036-2.590386 3.17036-4.528412.47701-3.005039-1.86011-5.655865-4.78215-5.867868-2.37503-.165003-4.65184.653013-6.86987 2.467037-1.11302.913012-1.74631 1.588959-2.70733 2.942977-.235.334005-.59491.367949-.58291-.125057.11101-3.84705-1.49728-6.011841-4.71032-6.082842-2.49204-.058-5.15662 1.2797-7.23264 2.919723-2.27604 1.810023-4.26608 4.208117-6.3991 6.462147-.265.278004-.49703.265121-.57103-.273885-.065-2.549034-.71226-5.01815-1.90428-6.771173-.42101-.610008-1.30813-.912235-2.05414-.500229-.344.187003-1.5428.732297-2.41381 1.427305-.43301.353005-.60031.863764-.41031 1.518773 1.15002 3.807049.89701 8.137116-.66301 11.795163-1.43302 3.348044-4.21796 6.370312-7.48999 7.392325-2.15603.677009-4.39817.345829-5.78519-1.547195-1.90502-2.612035-1.13478-7.153948 1.70326-10.926998 2.50703-3.320043 6.13017-5.430242 9.74722-6.78926.426-.162003.51274-.431612.39274-.789617-.197-.590008-.50972-1.390513-.63872-1.757518-.331-.873012-1.26013-1.015972-2.39314-.89297-2.62704.303004-4.996 1.19398-7.33703 2.434997-6.13008 3.250042-9.20226 9.540164-10.55027 12.906208-.64801 1.615021-1.20278 2.625159-1.91979 3.519171-.96601 1.203015-2.179122 2.297079-4.397151 4.226104-.200003.177002-.349903.545798-.181902.887803.227003.465006 1.379837 2.077054 1.705842 2.221056.361005.176002.779745-.06965.947747-.189653 1.552014-1.041014 3.409084-2.692161 4.318094-3.812176.318-.383004.64645-.221822.81545.360186.84802 2.996039 3.06865 5.441718 6.13969 6.464731 5.62007 1.877025 11.45016-.839598 15.85022-5.568661 2.79603-3.00504 3.80522-4.938324 4.87722-6.252341 1.81603-2.229029 5.40007-7.214875 9.66713-10.415917 1.56502-1.180015 3.41812-2.080124 4.35013-1.483115.74701.480006.98814 1.594786-.21188 3.754815-4.35005 7.867103-10.75447 17.110339-11.92848 19.353369-.214.389005-.0271.694016.38395.694016 2.27703-.01 4.53516-.0052 6.60219-.0052.343-.016.49825-.170859.67025-.411862 3.33904-5.175068 6.48201-10.102927 9.85006-15.195994.19-.300004.363-.06744.37.06356.07 1.181016.36273 2.798221 1.07074 3.860235 1.27402 1.962025 3.07829 2.80492 5.08031 2.81792 1.59202.018 2.39694-.221788 4.11397-.856796a14.475204 14.475204 0 0 0 3.38016-1.796276c.50301-.345004.59075.23346.57775.322462-.77201 4.109054.18215 8.9767 4.3062 10.995727 4.93606 2.410032 10.35823-.976828 13.47827-4.033868.30501-.295004.63407-.264005.66507.370004.066 1.168015.59805 2.553291 1.57407 3.523304 2.61403 2.598034 7.8902 1.568762 13.18526-2.490291 3.40005-2.597034 6.9569-6.267899 10.16994-10.154951.11901-.150001.20779-.393167-.0222-.637171-.49-.507006-1.19758-1.08727-1.68259-1.534275-.221-.186003-.54629-.132734-.73329.0083-3.29305 3.101041-6.25699 6.638215-10.54304 9.563255-1.44502.998013-3.74713 1.80408-4.78215.418062-.403-.538007-.35669-1.283318.0403-2.26033 1.25102-3.086041 21.03003-32.904445 22.05605-34.660468l.002-.0021c.176-.306004-.01-.529684-.39998-.529684Zm-27.71463 18.641783c.51789-.0045 1.0028.09419 1.44436.304375 2.43603 1.151015 1.65797 3.944073.56896 6.137102a.58700828.58700828 0 0 0-.0439.45217c.04.228003.33957.448971.63458.553972.103.038.16145.111914.0445.351917-.84202 1.785023-1.61409 2.814061-2.6691 4.364081-.968 1.433019-2.06027 2.550127-3.38429 3.626141-1.99503 1.635021-4.76485 3.413971-7.05488 2.217956-1.01801-.524007-1.45712-1.933221-1.43712-3.074236.053-3.210042 1.49017-6.504014 4.15221-9.742055 2.63741-3.214293 5.5006-5.17171 7.74475-5.191423Z" fill="#fff"/>
</svg>
