<svg xmlns="http://www.w3.org/2000/svg" width="145" height="41" fill="none">
    <path fill="#00B33C" fill-rule="evenodd" d="M22.72 30.47h-6.253c-9.753 0-2.667-20.716 5.544-20.716h9.88c1.583 0 4.376.292 5.752-3.626L39.768.042H26.221c-7.336 0-13.047 2.584-17.173 6.92C1.92 14.38-.498 25.968 1.21 31.511c1.626 5.128 6.044 8.504 12.964 8.587l5.377.042h6.628l1.625-4.877c1.21-3.46-1.5-4.793-5.085-4.793Zm76.114-8.586 2.042-6.628h-21.8c-3.627 0-5.252 1-5.877 3.085l-2.043 6.627h21.8c3.627 0 5.252-1 5.878-3.084Zm-30.93 11.671-2.042 6.628h21.8c3.585 0 5.253-1 5.878-3.085l2.042-6.627h-21.8c-3.585 0-5.21 1-5.877 3.084ZM103.92 6.711l2.043-6.628h-21.8c-3.627 0-5.253 1-5.878 3.085L76.24 9.796h21.8c3.586 0 5.211-1 5.878-3.085Zm-32.93 1.334C70.072 1.875 66.78.083 58.776.083h-14.59l-8.502 24.885h5.377c3.21 0 4.835.042 6.544-4.543l3.543-10.671h5.419c4.627 0 3.585 5.794 1.25 11.421-2.084 4.96-5.71 9.337-10.087 9.337h-9.045c-3.627 0-5.294 1-5.961 3.085l-2.251 6.627h6.628l6.502-.041c5.753-.042 10.463-.459 15.965-5.419 5.836-5.294 12.588-18.883 11.421-26.719ZM144.27.042h-12.63l-11.88 12.63c-1.376 1.459-2.793 2.918-4.169 4.627h-.125L121.384.042h-10.295l-13.88 40.14h10.295l4.418-12.63 4.585-3.876 3.627 11.421c1.125 3.544 2.293 5.086 4.794 5.086h7.878l-8.087-22.426L144.269.042Z" clip-rule="evenodd"/>
</svg>