<svg xmlns="http://www.w3.org/2000/svg" xml:space="preserve" id="Слой_1" x="0" y="0" style="enable-background:new 0 0 180 60" version="1.1" viewBox="60 0 60 60">
  <style>
    .st59{fill:#0c54a0}
  </style>
    <path d="M113.6 1.9H66.4c-2.5 0-4.5 2-4.5 4.5v47.3c0 2.5 2 4.5 4.5 4.5h47.3c2.5 0 4.5-2 4.5-4.5V6.4c-.1-2.5-2.1-4.5-4.6-4.5z" class="st59"/>
    <path d="M114.2 30c0 13.4-10.8 24.2-24.2 24.2-13.4 0-24.2-10.8-24.2-24.2C65.8 16.6 76.6 5.8 90 5.8c13.4 0 24.2 10.8 24.2 24.2z" style="fill:#fff01e"/>
    <path d="M88.1 25.7h-5l-5.9 6V19.5h-4.5v20.9h4.5v-6.6l5.6 6.6h5.7l-7-8.1 6.6-6.6z" class="st59"/>
    <path d="M91.6 24.3c-.7 0-1.3-.2-1.7-.7-.5-.5-.7-1.1-.7-1.7 0-.7.2-1.3.7-1.7.5-.5 1.1-.7 1.7-.7.7 0 1.3.2 1.7.7.5.5.7 1.1.7 1.7 0 .7-.2 1.3-.7 1.7-.5.5-1.1.7-1.7.7z" style="fill:#f52d0e"/>
    <path d="M93.8 40.4h-4.5V25.7h4.5v14.7zM107.3 29.5v-3.7h-4.1v-6.2h-4.5v6.2h-3v3.7h3V36c0 1.5.4 2.7 1.3 3.5.9.8 2.2 1.2 4 1.2.4 0 1 0 1.6-.1.6-.1 1.1-.2 1.6-.3v-3.6c-.4.1-.7.2-1 .2-.3 0-.6.1-1 .1-.7 0-1.2-.1-1.5-.4-.3-.3-.4-.7-.4-1.4v-5.6h4v-.1z" class="st59"/>
</svg>