<svg width="24" height="24" viewBox="8 13 48 45" fill="none" xmlns="http://www.w3.org/2000/svg">
    <path d="M24.5 53.5L20.377 57.2482C19.601 57.9536 18.4118 57.9398 17.6524 57.2165L10.0564 49.9823C9.21557 49.1815 9.23119 47.8353 10.0904 47.0542L14 43.5M24.5 53.5L14 43.5M24.5 53.5C23.5 46.5 39.5038 51.1641 42 49.5C43.2407 48.6729 48.3581 43.5129 51.6937 39.3958C52.7568 38.0836 52.4624 36.193 51.1293 35.1561C49.899 34.1992 48.1584 34.2673 47.0067 35.3175L40.5 41.25M14 43.5C15.4888 41.3495 20.524 37.4587 28.8122 38.965C28.9358 38.9875 29.0636 39 29.1892 39C32.8856 39 36.2792 39 38.5011 39C39.6056 39 40.5 39.8954 40.5 41V41.25M32 43.5H38.5C39.6046 43.5 40.5 42.6046 40.5 41.5V41.25" stroke="black" stroke-width="2"/>
    <path d="M36.8958 25.2832H27.5319V22.8216H36.834C37.6669 22.8216 38.339 22.6938 38.8503 22.4382C39.3615 22.1743 39.7368 21.8073 39.9759 21.3372C40.2151 20.8672 40.3346 20.3188 40.3346 19.6921C40.3346 19.1313 40.2151 18.6076 39.9759 18.1211C39.7368 17.6345 39.3657 17.2387 38.8626 16.9336C38.3596 16.6202 37.704 16.4635 36.8958 16.4635H33.1602V32H30.0553V13.9896H36.8958C38.2813 13.9896 39.4605 14.2329 40.4336 14.7194C41.4067 15.2059 42.153 15.878 42.6725 16.7357C43.1921 17.5851 43.4518 18.5623 43.4518 19.6673C43.4518 20.8466 43.1879 21.8568 42.6602 22.6979C42.1406 23.5308 41.3902 24.1699 40.4089 24.6152C39.4358 25.0605 38.2648 25.2832 36.8958 25.2832ZM37.1927 26.6068V29.0684H27.5319V26.6068H37.1927Z" fill="black"/>
</svg>
