<svg width="64" height="64" viewBox="0 0 64 64" fill="none" xmlns="http://www.w3.org/2000/svg">
<path fill-rule="evenodd" clip-rule="evenodd" d="M18.6081 8H36.7829C40.4023 8 43.5223 8.61794 46.1011 9.90454C48.661 11.1607 50.6337 12.9301 51.9763 15.2187C53.3342 17.4759 54 20.0578 54 22.9327C54 26.0241 53.341 28.7356 51.9768 31.0249C50.6298 33.3002 48.6486 35.0314 46.0787 36.2244L46.0721 36.2274C43.5017 37.398 40.3928 37.9602 36.7829 37.9602H26.7374V40.2885H37.3998V47.2802H26.7374V56H18.6081V47.2802H12V40.2885H18.6081V37.9602H12V31H18.6081V8ZM20.6081 10V33H14V35.9602H20.6081V42.2885H14V45.2802H20.6081V54H24.7374V45.2802H35.3998V42.2885H24.7374V35.9602H36.7829C40.1946 35.9602 43.0011 35.4276 45.24 34.4087C47.4779 33.3692 49.1348 31.8996 50.256 30.0057L50.2576 30.003C51.4038 28.0804 52 25.7378 52 22.9327C52 20.3757 51.4111 18.1571 50.2599 16.2453L50.2537 16.2351C49.1282 14.3146 47.4638 12.8005 45.2173 11.6987L45.211 11.6955C42.9806 10.5821 40.1852 10 36.7829 10H20.6081ZM24.7374 12.9918H36.7829C39.3178 12.9918 41.4626 13.452 43.1382 14.4604C44.7694 15.4296 45.9909 16.6927 46.7473 18.2595C47.4937 19.762 47.8707 21.3444 47.8707 22.9959C47.8707 24.9585 47.483 26.7157 46.6693 28.2341C45.8596 29.7852 44.5999 30.9695 42.9407 31.7905C41.2696 32.6174 39.1993 33 36.7829 33H24.7374V12.9918ZM26.7374 14.9918V31H36.7829C39.0061 31 40.7453 30.6454 42.0537 29.998C43.3721 29.3456 44.3034 28.4466 44.8985 27.3044L44.9042 27.2935C45.5357 26.1171 45.8707 24.6957 45.8707 22.9959C45.8707 21.6586 45.5676 20.3785 44.9538 19.1446L44.9482 19.1333C44.3854 17.9654 43.4594 16.9772 42.1143 16.1785L42.1089 16.1753C40.8479 15.4157 39.099 14.9918 36.7829 14.9918H26.7374Z" fill="black"/>
</svg>
