<svg width="50" height="20" viewBox="0 0 100 36" fill="none" xmlns="http://www.w3.org/2000/svg">
    <path d="M6.90469 0L5.17676 4.73976H29.1136L30.8416 0H6.90469ZM4.3138 7.10762L2.58587 11.8464H26.5227L28.2507 7.10762H4.3138ZM1.72793 14.2152L0 18.953H23.9369L25.6628 14.2142C25.6638 14.2152 1.72793 14.2152 1.72793 14.2152Z" fill="#009FDF"/>
    <path d="M50.322 20.4405V20.5389C51.3969 20.9337 52.4246 21.6249 52.9621 22.0689C54.6237 23.4513 55.3581 25.2766 55.3581 27.6455C55.3581 31.5464 53.3047 34.3583 49.9302 35.2474C48.9025 35.5438 47.8275 35.6422 45.8233 35.6422H35.6064V7.11328H44.652C46.5105 7.11328 47.7803 7.21173 48.9045 7.50709C52.1805 8.39617 54.3324 10.6666 54.3324 14.2691C54.3324 16.195 53.6483 17.8244 52.5241 18.9094C52.0348 19.4027 51.3507 19.9954 50.324 20.4394L50.322 20.4405ZM41.2775 23.4513V30.9537H45.1894C46.3618 30.9537 47.4388 30.8553 48.2203 30.1149C49.0029 29.3745 49.3445 28.4362 49.3445 27.2025C49.3445 26.2662 49.0994 25.3771 48.6111 24.7352C47.7803 23.6984 46.7526 23.4513 44.9935 23.4513H41.2765H41.2775ZM41.2272 18.5146H44.4058C45.3833 18.5146 45.8726 18.5146 46.3608 18.3669C47.6819 17.9711 48.5127 16.7887 48.5127 15.1592C48.5127 13.2344 47.6326 12.3945 46.3608 12.0007C45.8223 11.852 45.2859 11.8038 44.2099 11.8038H41.2272V18.5156V18.5146ZM63.8651 35.6432V11.9013H55.7007V7.11429H78.3878L76.7744 11.9013H69.5372V35.6432H63.8651ZM80.1479 35.6432V7.11429H98.5323L96.9189 11.9013H85.7717V18.2203H90.3196C93.9864 18.2203 95.8932 19.1093 97.2142 20.2435C98.2419 21.1326 100.001 23.1057 100.001 27.0066C100.001 30.8563 98.1927 32.978 96.6757 34.065C94.9157 35.2976 93.0581 35.6442 89.2919 35.6442H80.1489H80.1479V35.6432ZM85.7707 30.8543H90.0242C91.6376 30.8543 92.6151 30.4594 93.2992 29.5704C93.6408 29.1273 94.1301 28.3357 94.1301 26.8559C94.1301 25.3761 93.6408 24.3383 92.6633 23.5979C92.0776 23.1549 91.294 22.9088 89.974 22.9088H85.7687V30.8543H85.7707Z" fill="#0A2973"/>
</svg>
